<svg xmlns="http://www.w3.org/2000/svg" width="1366.541" height="216.361" viewBox="0 0 1366.541 216.361">
  <g id="bakterie_2" data-name="bakterie 2" transform="translate(-365.953 -833.667)">
    <path id="Path_313" data-name="Path 313" d="M902.032,1015.154l-.213-.124a14.931,14.931,0,0,0-2.774-1.385l-1.121-.365a51.245,51.245,0,0,0-15.274-2.336h-.028a58.631,58.631,0,0,0-25.328,6.044A72.7,72.7,0,0,0,837.68,1030.9a10.54,10.54,0,0,0-3.1,7.473v.043a10.538,10.538,0,0,0,2.6,6.9l-.028.026.526.524.525.523.027-.025a10.582,10.582,0,0,0,6.93,2.593h.072a10.588,10.588,0,0,0,7.439-3.089,51.546,51.546,0,0,1,13.378-9.628,37.681,37.681,0,0,1,16.566-4.13,30.161,30.161,0,0,1,9.584,1.547,10.72,10.72,0,0,0,3.364.544h.051a10.593,10.593,0,0,0,4.678-1.11l.042-.021.03-.021a10.579,10.579,0,0,0,3.8-3.248l.5-.856.947-1.978.343-1.47.116-.978c.019-.258.061-.515.061-.771A10.317,10.317,0,0,0,902.032,1015.154Z" fill="none" opacity="0.5"/>
    <path id="Path_314" data-name="Path 314" d="M1174.508,834.194a10.632,10.632,0,0,0,10.528,10.734,34.219,34.219,0,0,1,34.178,34.177,10.63,10.63,0,1,0,21.26,0,55.42,55.42,0,0,0-23.734-45.438h-42.2C1174.529,833.843,1174.51,834.016,1174.508,834.194Z" fill="none" opacity="0.5"/>
    <path id="Path_315" data-name="Path 315" d="M465.539,853.482v0a17.236,17.236,0,0,0-.5,14.512,13.1,13.1,0,0,0,1.179,2.065h0l.007.01a10.775,10.775,0,0,0,5.955,4.291l.035.007.071.015v0a15.173,15.173,0,0,0,12.59-2.427l0,0,.021-.014a17.356,17.356,0,0,0,5.7-6.751l.005-.013h0a105.065,105.065,0,0,1,20.972-29.766l.058.059.014-.011-.052-.066.01-.008,0,0,.005,0,0,0a17.22,17.22,0,0,0,1.475-1.713H477.047A132.86,132.86,0,0,0,465.54,853.48Z" fill="none" opacity="0.5"/>
    <path id="Path_316" data-name="Path 316" d="M410.971,980.378h0a10.061,10.061,0,0,0-4.5-5.152h0l-.024-.013h0a12.145,12.145,0,0,0-1.892-.883,81.6,81.6,0,0,0-27.8-5h-.007c-.116,0-.231-.006-.347-.006a10.443,10.443,0,0,0-7.75,3.444,7.868,7.868,0,0,0-.827,1.169l0,.008,0,0a6.473,6.473,0,0,0-.906,3.3,6.388,6.388,0,0,0,.081,1.021l0,.013.057.245a9.158,9.158,0,0,0,4.5,6.075l.007,0,.007.005.005,0a10.516,10.516,0,0,0,5.165,1.4h.054l.009,0A64.727,64.727,0,0,1,398.832,990l-.066.181.011.005.034-.069.039-.108.014,0h0a10.442,10.442,0,0,0,6.7.128h0a8.907,8.907,0,0,0,5.035-3.966l.026-.046a6.757,6.757,0,0,0,.343-5.746Z" fill="none" opacity="0.5"/>
    <path id="Path_317" data-name="Path 317" d="M511.785,835.628l.014-.01-.014.009Z" fill="none" opacity="0.5"/>
    <path id="Path_318" data-name="Path 318" d="M832.66,922.14v0l-.005-.016v0a10.5,10.5,0,0,0-2.742-4.6l-.047-.047,0-.009a64.782,64.782,0,0,1-13.081-18.151l.174-.084-.005-.015-.037.012-.138.067a10.451,10.451,0,0,0-4.74-4.76h0a8.895,8.895,0,0,0-6.377-.645l-.05.014a6.756,6.756,0,0,0-4.238,3.9v0a10.036,10.036,0,0,0-.341,6.832v.006l.006.022a12.229,12.229,0,0,0,.749,1.949,81.628,81.628,0,0,0,16.524,22.908l0,0,0,0a10.442,10.442,0,0,0,7.5,3.174c.238,0,.477-.007.717-.024a7.922,7.922,0,0,0,1.406-.266h0l.006,0a6.458,6.458,0,0,0,3.6-2.538l.006-.009.093-.159a9.113,9.113,0,0,0,1.018-7.557Z" fill="none" opacity="0.5"/>
    <path id="Path_319" data-name="Path 319" d="M1296.641,981.145l-.368-1.169-.41-.721-.325-.442c-.095-.121-.178-.242-.26-.328l0-.005,0,0a5.7,5.7,0,0,0-4.3-1.959c-.192,0-.385.011-.578.03l-.125.029h-.006a8.336,8.336,0,0,0-1.663.491l-.606.282a29.279,29.279,0,0,0-7.287,4.97l.005,0-.006.005-.008.008a33.518,33.518,0,0,0-8.231,12.4l0-.007,0,.008a41.629,41.629,0,0,0-2.779,13.481l0,.215a5.827,5.827,0,0,0,1.561,3.968l0,0,.009.008,0,0a5.8,5.8,0,0,0,3.649,1.805l.235.024v.006l.172.006.186.007v-.006l.221-.008a5.829,5.829,0,0,0,3.773-1.561l.023-.021.006-.005,0,0a5.844,5.844,0,0,0,1.838-4.048,29.964,29.964,0,0,1,1.868-9.383l.306-.824.008.037a21.959,21.959,0,0,1,5.112-7.546l0,0a17.63,17.63,0,0,1,4.71-3.157,5.962,5.962,0,0,0,1.566-1.047l.019-.02a5.854,5.854,0,0,0,1.472-2.209l0-.008.005-.023.006-.014a5.82,5.82,0,0,0,.31-2.735Z" fill="none" opacity="0.5"/>
    <path id="Path_320" data-name="Path 320" d="M1731.546,926.168v-.015a10.5,10.5,0,0,0-1.368-5.178l-.032-.057v-.01a64.727,64.727,0,0,1-7.57-21.053l.191-.033,0-.016h-.035l-.155.028a10.448,10.448,0,0,0-3.245-5.882v0a8.909,8.909,0,0,0-5.952-2.377h-.051a6.755,6.755,0,0,0-5.149,2.577l0,0a10.052,10.052,0,0,0-2.212,6.289l0,.183v.03a12.178,12.178,0,0,0,.183,2.079,81.622,81.622,0,0,0,9.57,26.575l0,.006a10.439,10.439,0,0,0,7.029,5.293,7.9,7.9,0,0,0,1.423.132h.091a6.466,6.466,0,0,0,4.078-1.448l.009-.009.422-.4v0a9.161,9.161,0,0,0,2.773-6.551v-.165Z" fill="none" opacity="0.5"/>
    <path id="Path_321" data-name="Path 321" d="M511.616,835.38l0,0-.005,0,0,0-.01.008.052.066-.014.011-.058-.059A105.065,105.065,0,0,0,490.6,865.181h0l-.005.013a17.356,17.356,0,0,1-5.7,6.751l-.021.014,0,0a15.173,15.173,0,0,1-12.59,2.427v0l-.071-.015-.035-.007a10.775,10.775,0,0,1-5.955-4.291l-.007-.01h0A13.1,13.1,0,0,1,465.038,868a17.236,17.236,0,0,1,.5-14.512v0a132.86,132.86,0,0,1,11.507-19.813h-1.282a132.032,132.032,0,0,0-11.158,19.382,18.238,18.238,0,0,0-.508,15.378l0,0a14.338,14.338,0,0,0,1.278,2.241,11.713,11.713,0,0,0,6.514,4.68l.008,0h.009a16.223,16.223,0,0,0,13.586-2.6,18.353,18.353,0,0,0,6.032-7.144h0a104.148,104.148,0,0,1,20.761-29.477l.013-.009.009-.007.008-.008a18.26,18.26,0,0,0,2.034-2.444h-1.262A17.22,17.22,0,0,1,511.616,835.38Zm.169.248h0l.013-.01Z" fill="#ef7d00" opacity="0.5"/>
    <path id="Path_322" data-name="Path 322" d="M1719.9,893.208h0Z" fill="#ef7d00" opacity="0.5"/>
    <path id="Path_323" data-name="Path 323" d="M1732.493,926.139a11.456,11.456,0,0,0-1.49-5.633h0a63.89,63.89,0,0,1-7.495-20.793V899.7l0-.022a11.407,11.407,0,0,0-3.6-6.473,9.836,9.836,0,0,0-6.517-2.581h-.076a7.632,7.632,0,0,0-5.86,2.925l0,0,0,0a10.752,10.752,0,0,0-2.431,6.808l0,.2a14.165,14.165,0,0,0,.2,2.342,81.376,81.376,0,0,0,9.682,26.875h0l0,.006a11.374,11.374,0,0,0,7.665,5.755h.006a8.952,8.952,0,0,0,1.608.15h.1a7.355,7.355,0,0,0,4.579-1.609h.023l.07-.06a10.142,10.142,0,0,0,3.54-7.7Zm-3.719,6.745v0l-.422.4-.009.009a6.466,6.466,0,0,1-4.078,1.448h-.091a7.9,7.9,0,0,1-1.423-.132,10.439,10.439,0,0,1-7.029-5.293l0-.006a81.622,81.622,0,0,1-9.57-26.575,12.178,12.178,0,0,1-.183-2.079v-.03l0-.183a10.052,10.052,0,0,1,2.212-6.289l0,0a6.755,6.755,0,0,1,5.149-2.577h.051a8.909,8.909,0,0,1,5.952,2.377v0a10.448,10.448,0,0,1,3.245,5.882l.155-.028h.035l0,.016-.191.033a64.727,64.727,0,0,0,7.57,21.053v.01l.032.057a10.5,10.5,0,0,1,1.368,5.178v.18A9.161,9.161,0,0,1,1728.774,932.884Z" fill="#ef7d00" opacity="0.5"/>
    <line id="Line_9" data-name="Line 9" x2="0.001" transform="translate(812.381 893.665)" fill="none" stroke="#ef7d00" stroke-linecap="round" stroke-linejoin="round" stroke-width="0" opacity="0.5"/>
    <line id="Line_10" data-name="Line 10" x2="0.001" transform="translate(812.38 893.665)" fill="none" stroke="#ef7d00" stroke-linecap="round" stroke-linejoin="round" stroke-width="0" opacity="0.5"/>
    <path id="Path_324" data-name="Path 324" d="M833.561,921.853h0v0a11.438,11.438,0,0,0-2.984-5h0a63.881,63.881,0,0,1-12.936-17.922l0-.008-.009-.019a11.4,11.4,0,0,0-5.246-5.23,9.832,9.832,0,0,0-6.974-.685h0l-.068.019h-.005a7.632,7.632,0,0,0-4.827,4.426h0v.005h0a10.759,10.759,0,0,0-.4,7.4v0h0a14.138,14.138,0,0,0,.842,2.2A81.347,81.347,0,0,0,817.656,930.2h0l0,.005a11.378,11.378,0,0,0,8.158,3.449q.4,0,.8-.029h.006a9.046,9.046,0,0,0,1.584-.3h0a7.341,7.341,0,0,0,4.044-2.824l.023,0,.058-.089a10.129,10.129,0,0,0,1.228-8.555Zm-1.919,7.847-.093.159-.006.009a6.458,6.458,0,0,1-3.6,2.538l-.006,0h0a7.922,7.922,0,0,1-1.406.266c-.24.017-.479.024-.717.024a10.442,10.442,0,0,1-7.5-3.174l0,0,0,0a81.628,81.628,0,0,1-16.524-22.908,12.229,12.229,0,0,1-.749-1.949l-.006-.022v-.006a10.036,10.036,0,0,1,.341-6.832v0a6.756,6.756,0,0,1,4.238-3.9l.05-.014a8.895,8.895,0,0,1,6.377.645h0a10.451,10.451,0,0,1,4.74,4.76l.138-.067.037-.012.005.015-.174.084a64.782,64.782,0,0,0,13.081,18.151l0,.009.047.047a10.5,10.5,0,0,1,2.742,4.6v0l.005.016v.006a9.113,9.113,0,0,1-1.018,7.557Z" fill="#ef7d00" opacity="0.5"/>
    <path id="Path_325" data-name="Path 325" d="M411.851,980.043v0a10.766,10.766,0,0,0-4.849-5.6h0a14.141,14.141,0,0,0-2.131-1,81.346,81.346,0,0,0-28.124-5.052c-.121,0-.242-.006-.362-.006a11.378,11.378,0,0,0-8.455,3.765l0,0,0,0a9.094,9.094,0,0,0-.931,1.316h0a7.223,7.223,0,0,0-.948,4.852l-.011.019.018.092a10.137,10.137,0,0,0,5.06,7.008h0a11.432,11.432,0,0,0,5.622,1.527h0a63.851,63.851,0,0,1,21.757,3.906l.006,0,.019.007a11.415,11.415,0,0,0,7.407.118,9.832,9.832,0,0,0,5.493-4.353v0l.035-.061h0v0a7.633,7.633,0,0,0,.4-6.538Zm-1.222,6.082-.026.046a8.907,8.907,0,0,1-5.035,3.966h0a10.442,10.442,0,0,1-6.7-.128h0l-.014,0-.039.108-.034.069-.011-.005.066-.181a64.727,64.727,0,0,0-22.03-3.972l-.009,0h-.054a10.516,10.516,0,0,1-5.165-1.4l-.005,0-.007-.005-.007,0a9.158,9.158,0,0,1-4.5-6.075l-.057-.245,0-.013a6.388,6.388,0,0,1-.081-1.021,6.473,6.473,0,0,1,.906-3.3l0,0,0-.008a7.868,7.868,0,0,1,.827-1.169,10.443,10.443,0,0,1,7.75-3.444c.116,0,.231,0,.347.006h.007a81.6,81.6,0,0,1,27.8,5,12.145,12.145,0,0,1,1.892.883h0l.024.013h0a10.061,10.061,0,0,1,4.5,5.152h0a6.757,6.757,0,0,1-.343,5.746Z" fill="#ef7d00" opacity="0.5"/>
    <path id="Path_326" data-name="Path 326" d="M404.857,973.435l.01,0h0Z" fill="#ef7d00" opacity="0.5"/>
    <path id="Path_327" data-name="Path 327" d="M899.275,1012.529a54.409,54.409,0,0,0-16.788-2.672,59.307,59.307,0,0,0-25.648,6.075,73.829,73.829,0,0,0-19.962,14.187,11.713,11.713,0,0,0,16.593,16.536l.525-.525.02.02a50.2,50.2,0,0,1,12.316-8.814,36.526,36.526,0,0,1,16.256-4.105,29.161,29.161,0,0,1,9.25,1.487,11.664,11.664,0,0,0,8.968-.641,11.319,11.319,0,0,0,5.858-6.714,12.724,12.724,0,0,0,.6-3.809,11.423,11.423,0,0,0-2.434-7.041A11.756,11.756,0,0,0,899.275,1012.529Zm6.795,12-.116.978-.343,1.47-.947,1.978-.5.856a10.579,10.579,0,0,1-3.8,3.248l-.03.021-.042.021a10.593,10.593,0,0,1-4.678,1.11h-.051a10.72,10.72,0,0,1-3.364-.544,30.161,30.161,0,0,0-9.584-1.547,37.681,37.681,0,0,0-16.566,4.13,51.546,51.546,0,0,0-13.378,9.628,10.588,10.588,0,0,1-7.439,3.089h-.072a10.582,10.582,0,0,1-6.93-2.593l-.027.025-.525-.523-.526-.524.028-.026a10.538,10.538,0,0,1-2.6-6.9v-.043a10.54,10.54,0,0,1,3.1-7.473,72.7,72.7,0,0,1,19.614-13.916,58.631,58.631,0,0,1,25.328-6.044h.028a51.245,51.245,0,0,1,15.274,2.336l1.121.365a14.931,14.931,0,0,1,2.774,1.385l.213.124a10.317,10.317,0,0,1,4.1,8.6C906.131,1024.009,906.089,1024.266,906.07,1024.524Z" fill="#ef7d00" opacity="0.5"/>
    <path id="Path_328" data-name="Path 328" d="M1297.314,979.514a7.534,7.534,0,0,0-1.285-1.9h0a6.819,6.819,0,0,0-3.931-2.086h0a7.019,7.019,0,0,0-4.047.523h0a31.579,31.579,0,0,0-8.183,5.513h0a34.4,34.4,0,0,0-8.475,12.722,42.731,42.731,0,0,0-2.852,13.894v0l0,.166a6.994,6.994,0,0,0,6.83,6.99l.166,0a7,7,0,0,0,6.986-6.693l.006-.185h.013l.011-.238a28.623,28.623,0,0,1,1.711-8.473v0a20.771,20.771,0,0,1,5.17-8.019,16.528,16.528,0,0,1,4.412-2.961h0a6.971,6.971,0,0,0,3.654-3.928v0a6.769,6.769,0,0,0-.177-5.32Zm-.865,4.9-.006.014-.005.023,0,.008a5.854,5.854,0,0,1-1.472,2.209l-.019.02a5.962,5.962,0,0,1-1.566,1.047,17.63,17.63,0,0,0-4.71,3.157l0,0a21.959,21.959,0,0,0-5.112,7.546l-.008-.037-.306.824a29.964,29.964,0,0,0-1.868,9.383,5.844,5.844,0,0,1-1.838,4.048l0,0-.006.005-.023.021a5.829,5.829,0,0,1-3.773,1.561l-.221.008v.006l-.186-.007-.172-.006v-.006l-.235-.024a5.8,5.8,0,0,1-3.649-1.805l0,0-.009-.008,0,0a5.827,5.827,0,0,1-1.561-3.968l0-.215a41.629,41.629,0,0,1,2.779-13.481l0-.008,0,.007a33.518,33.518,0,0,1,8.231-12.4l.008-.008.006-.005-.005,0a29.279,29.279,0,0,1,7.287-4.97l.606-.282a8.336,8.336,0,0,1,1.663-.491h.006l.125-.029c.193-.019.386-.03.578-.03a5.7,5.7,0,0,1,4.3,1.959l0,0,0,.005c.082.086.165.207.26.328l.325.442.41.721.368,1.169.118.53a5.82,5.82,0,0,1-.31,2.735Z" fill="#ef7d00" opacity="0.5"/>
    <path id="Path_329" data-name="Path 329" d="M1218.715,833.667h-1.975a55.42,55.42,0,0,1,23.734,45.438,10.63,10.63,0,1,1-21.26,0,34.219,34.219,0,0,0-34.178-34.177,10.632,10.632,0,0,1-10.528-10.734c0-.178.021-.351.032-.527H1173.3c-.011.208-.032.414-.032.626a11.773,11.773,0,0,0,11.773,11.773,33.069,33.069,0,0,1,33.036,33.035,11.773,11.773,0,1,0,23.547,0A56.562,56.562,0,0,0,1218.715,833.667Z" fill="#ef7d00" opacity="0.5"/>
  </g>
</svg>
