<svg xmlns="http://www.w3.org/2000/svg" width="709.112" height="444.082" viewBox="0 0 709.112 444.082">
  <g id="bakterie_3" data-name="bakterie 3" transform="translate(-8.889 -8.5)">
    <path id="Path_330" data-name="Path 330" d="M138.5,372.227l-.014-.014a25.067,25.067,0,0,0-20.3-6.676,28.387,28.387,0,0,0-13.516,5.132,162.54,162.54,0,0,1-50.682,24.509h-.012l-.025,0a28.265,28.265,0,0,0-15.033,10.559,24.281,24.281,0,0,0-4.662,16.679l.018.173a18.707,18.707,0,0,0,8.644,13.549,26.623,26.623,0,0,0,17.892,4.177,35.058,35.058,0,0,0,5.762-1.116,205.614,205.614,0,0,0,65.017-31.438c7.237-5.205,11.636-12.669,12.224-20.4a22.115,22.115,0,0,0-.047-3.978A18.018,18.018,0,0,0,138.5,372.227Zm4.173,15.06c-.585,7.579-4.941,14.674-11.761,19.576a207.51,207.51,0,0,1-64.664,31.271,31.665,31.665,0,0,1-5.3,1.029l-.063.007a26.12,26.12,0,0,1-17.327-3.958,17.751,17.751,0,0,1-8.149-12.753l-.016-.151a23.2,23.2,0,0,1,4.543-16.076,27.113,27.113,0,0,1,14.307-9.966l.027-.009h.022l.023.08-.014-.082a163.533,163.533,0,0,0,51.023-24.671l.017-.012a27.269,27.269,0,0,1,12.982-4.936l.04,0a23.871,23.871,0,0,1,19.272,6.347h0l.052.044a17.023,17.023,0,0,1,4.94,10.5l0,.02A20.594,20.594,0,0,1,142.676,387.287Z" fill="#ef7d00" opacity="0.5"/>
    <path id="Path_331" data-name="Path 331" d="M709.162,376.628a83.584,83.584,0,0,0-101.343,61.1l-.067.271a12.2,12.2,0,0,0-.347,3.075,11.612,11.612,0,0,0,11.609,11.507h.106A11.611,11.611,0,0,0,630.3,443.7a60.43,60.43,0,0,1,27.517-37.415,59.591,59.591,0,0,1,45.724-6.89,11.41,11.41,0,0,0,2.807.351l.187,0a11.688,11.688,0,0,0,11.093-8.854l.006-.027.006-.013A11.719,11.719,0,0,0,709.162,376.628Zm7.446,13.9-.007.04-.007.024a10.525,10.525,0,0,1-12.744,7.723l-.054-.013a61.429,61.429,0,0,0-74.483,44.911l-.052.213a10.59,10.59,0,0,1-10.067,8.035l-.186,0a10.386,10.386,0,0,1-2.549-.318,10.618,10.618,0,0,1-7.952-10.027l-.011-.046,0-.115a10.89,10.89,0,0,1,.288-2.644v-.044a82.6,82.6,0,0,1,36.986-50.723l-.011-.016.637-.384.632-.382.007.009a81.452,81.452,0,0,1,61.863-9.046,10.686,10.686,0,0,1,5.479,3.479,10.5,10.5,0,0,1,2.515,6.6l.017.01v.032A10.9,10.9,0,0,1,716.608,390.529Z" fill="#ef7d00" opacity="0.5"/>
    <path id="Path_332" data-name="Path 332" d="M379.793,48.508a11.425,11.425,0,0,0-6.221-1.841c-.337,0-.675.014-1.012.044a11.759,11.759,0,0,0-6.37,2.49A54.417,54.417,0,0,0,354.8,61.83a59.312,59.312,0,0,0-8.88,24.829,73.835,73.835,0,0,0,1.023,24.481,11.719,11.719,0,0,0,22.917-4.909l-.155-.728.026,0a50.224,50.224,0,0,1-.68-15.137,36.531,36.531,0,0,1,5.414-15.877,29.175,29.175,0,0,1,6.29-6.949,11.674,11.674,0,0,0,4.349-7.873,11.328,11.328,0,0,0-2.44-8.575A12.673,12.673,0,0,0,379.793,48.508Zm3.557,6.007A10.589,10.589,0,0,1,384,59.474v.036l-.005.047a10.608,10.608,0,0,1-1.618,4.529l-.028.043a10.759,10.759,0,0,1-2.29,2.526,30.168,30.168,0,0,0-6.521,7.2A37.677,37.677,0,0,0,367.98,90a51.511,51.511,0,0,0,.787,16.471A10.6,10.6,0,0,1,367.3,114.4l-.017.025-.023.036a10.575,10.575,0,0,1-5.952,4.4l.006.037-.725.156-.726.155-.008-.037a10.531,10.531,0,0,1-7.206-1.58l-.015-.009-.016-.011-.005,0a10.55,10.55,0,0,1-4.581-6.674,72.771,72.771,0,0,1-.985-24.041,58.678,58.678,0,0,1,8.732-24.544l.016-.024a51.252,51.252,0,0,1,10.285-11.541L367,50a15.02,15.02,0,0,1,2.675-1.572l.219-.111a10.325,10.325,0,0,1,9.45,1.247c.215.14.407.315.612.47l.758.631,1.047,1.089,1.143,1.873Z" fill="#ef7d00" opacity="0.5"/>
    <path id="Path_333" data-name="Path 333" d="M166.23,27.837v0a8.63,8.63,0,0,0-2.216-5.524h0v0a11.47,11.47,0,0,0-1.373-1.326A67.614,67.614,0,0,0,141.9,9.4h0l0,0a9.15,9.15,0,0,0-7.688.546,7.215,7.215,0,0,0-1.043.75h0a5.786,5.786,0,0,0-1.966,3.445l-.009.052,0,0a8.112,8.112,0,0,0,2.016,6.57h0v0a9.2,9.2,0,0,0,3.876,2.634h0a53.714,53.714,0,0,1,16.245,9.074l.01.008.005.006a9.171,9.171,0,0,0,5.591,2.02h0l.205,0a7.852,7.852,0,0,0,5.075-1.861h0l.042-.038a6.013,6.013,0,0,0,1.981-4.461c0-.1,0-.209-.008-.314Zm-2.021,4.726h0l-.038.032v0a7.8,7.8,0,0,1-5.046,1.853l-.255,0h0a9.088,9.088,0,0,1-5.394-1.938h0l-.042-.035-.05-.039-.01-.009,0,0a53.76,53.76,0,0,0-16.255-9.08l-.041-.014,0,0a9.132,9.132,0,0,1-3.809-2.6l-.007-.008a8.017,8.017,0,0,1-1.98-6.5l0-.022,0-.027v0a5.761,5.761,0,0,1,1.95-3.407l0,0a6.886,6.886,0,0,1,1.026-.737h0a9.075,9.075,0,0,1,7.63-.537h0A68.518,68.518,0,0,1,162.6,21.046a10.544,10.544,0,0,1,1.3,1.254h0l.014.016a8.755,8.755,0,0,1,2.243,5.516c0,.1.007.2.007.3A6,6,0,0,1,164.209,32.563Z" fill="#ef7d00" opacity="0.5"/>
    <line id="Line_11" data-name="Line 11" transform="translate(132.98 20.964)" fill="#ef7d00" opacity="0.5"/>
    <path id="Path_334" data-name="Path 334" d="M164.237,22.11a11.9,11.9,0,0,0-1.408-1.36A67.964,67.964,0,0,0,142,9.117a9.451,9.451,0,0,0-7.941.568l0,0h0a7.466,7.466,0,0,0-1.087.782h0a6.084,6.084,0,0,0-2.058,3.568l-.005.005-.009.055a8.414,8.414,0,0,0,2.08,6.867l0,0h0a9.5,9.5,0,0,0,4,2.719h0A53.43,53.43,0,0,1,153.128,32.7l0,.007.011.009a9.467,9.467,0,0,0,5.785,2.1h0l.213,0a8.148,8.148,0,0,0,5.27-1.934l0,0,.042-.037h0a6.313,6.313,0,0,0,2.081-4.685c0-.108,0-.217-.008-.326A8.928,8.928,0,0,0,164.237,22.11Zm.02,10.5-.042.038h0a7.852,7.852,0,0,1-5.075,1.861l-.205,0h0a9.171,9.171,0,0,1-5.591-2.02l-.005-.006-.01-.008A53.714,53.714,0,0,0,137.083,23.4h0a9.2,9.2,0,0,1-3.876-2.634v0h0a8.112,8.112,0,0,1-2.016-6.57l0,0,.009-.052a5.786,5.786,0,0,1,1.966-3.445h0a7.215,7.215,0,0,1,1.043-.75A9.15,9.15,0,0,1,141.9,9.4l0,0h0a67.614,67.614,0,0,1,20.734,11.582,11.47,11.47,0,0,1,1.373,1.326v0h0a8.63,8.63,0,0,1,2.216,5.524v0h0c.006.105.008.21.008.314A6.013,6.013,0,0,1,164.257,32.613Z" fill="#ef7d00" opacity="0.5"/>
    <path id="Path_335" data-name="Path 335" d="M163.918,22.317,163.9,22.3h0a10.544,10.544,0,0,0-1.3-1.254,68.518,68.518,0,0,0-20.712-11.57h0a9.075,9.075,0,0,0-7.63.537h0a6.886,6.886,0,0,0-1.026.737l0,0a5.761,5.761,0,0,0-1.95,3.407v0l0,.027,0,.022a8.017,8.017,0,0,0,1.98,6.5l.007.008a9.132,9.132,0,0,0,3.809,2.6l0,0,.041.014a53.76,53.76,0,0,1,16.255,9.08l0,0,.01.009.05.039.042.035h0a9.088,9.088,0,0,0,5.394,1.938h0l.255,0a7.8,7.8,0,0,0,5.046-1.853v0l.038-.032h0a6,6,0,0,0,1.959-4.434c0-.1,0-.2-.007-.3A8.755,8.755,0,0,0,163.918,22.317Zm.089,10.024-.035.03h0a7.5,7.5,0,0,1-4.85,1.781l-.245,0h0A8.789,8.789,0,0,1,153.57,32.2l-.063.078-.016.014,0,0,.076-.093a54.031,54.031,0,0,0-16.31-9.122l0,0-.04-.015a8.832,8.832,0,0,1-3.724-2.528l-.01-.012a7.715,7.715,0,0,1-1.9-6.287l.01-.071a5.462,5.462,0,0,1,1.84-3.176h0l.005,0h0a6.532,6.532,0,0,1,.981-.7h0a8.784,8.784,0,0,1,7.379-.516h0a68.253,68.253,0,0,1,20.622,11.519,10.433,10.433,0,0,1,1.261,1.217h0l.013.016h0l0,0a8.452,8.452,0,0,1,2.169,5.331c.005.1.007.189.007.283A5.7,5.7,0,0,1,164.007,32.341Z" fill="#ef7d00" opacity="0.5"/>
    <path id="Path_257" data-name="Path 257" d="M22,216.591a10.289,10.289,0,0,0,3.169-4.175,58.9,58.9,0,0,1,10.871-17.271h0l.007-.006A10.249,10.249,0,0,0,38.638,189h0a8.8,8.8,0,0,0-1.772-6.024l-.038-.049a6.787,6.787,0,0,0-5.258-2.507,9.658,9.658,0,0,0-6.3,2.155,12.645,12.645,0,0,0-1.557,1.45A74.532,74.532,0,0,0,9.763,206.185a10.222,10.222,0,0,0,.163,8.62,7.948,7.948,0,0,0,.778,1.214,6.531,6.531,0,0,0,3.764,2.42l0,0A9.09,9.09,0,0,0,22,216.591Z" fill="#ef7d00"/>
  </g>
</svg>
