<svg xmlns="http://www.w3.org/2000/svg" width="668.512" height="739.164" viewBox="0 0 668.512 739.164">
  <g id="bakterie_5" data-name="bakterie 5" transform="translate(0)">
    <path id="Path_254" data-name="Path 254" d="M82.747,230.475a30.5,30.5,0,0,1,9.676,1.556,12.189,12.189,0,0,0,9.376-.668,11.855,11.855,0,0,0,6.128-7.023,13.265,13.265,0,0,0,.631-3.982,11.962,11.962,0,0,0-2.546-7.365,12.3,12.3,0,0,0-5.808-4.167,56.829,56.829,0,0,0-17.561-2.794,62.011,62.011,0,0,0-26.824,6.354,77.223,77.223,0,0,0-20.881,14.838,12.252,12.252,0,0,0,17.354,17.3l.55-.549.02.02a52.585,52.585,0,0,1,12.884-9.218h0A38.212,38.212,0,0,1,82.747,230.475Z" fill="#ef7d00"/>
    <path id="Path_255" data-name="Path 255" d="M631.4,290.171a10.275,10.275,0,0,0,4.53,2.636,58.953,58.953,0,0,1,18.467,8.686h0l.007.006a10.242,10.242,0,0,0,6.4,1.825h0a8.8,8.8,0,0,0,5.763-2.492l.044-.045a6.786,6.786,0,0,0,1.847-5.524,9.654,9.654,0,0,0-2.906-5.993,12.755,12.755,0,0,0-1.629-1.369,74.556,74.556,0,0,0-23.691-11.143,10.223,10.223,0,0,0-8.536,1.212,8.026,8.026,0,0,0-1.111.921,6.531,6.531,0,0,0-1.942,4.031l0,0A9.088,9.088,0,0,0,631.4,290.171Z" fill="#ef7d00"/>
    <path id="Path_343" data-name="Path 343" d="M185.754,13.53a68.591,68.591,0,0,0-5.178,9.091c-.092.183-.163.372-.242.559.079-.187.15-.376.242-.558A68.539,68.539,0,0,1,185.754,13.53Z" fill="#ef7d00" opacity="0.5"/>
    <path id="Path_344" data-name="Path 344" d="M45.59,428.48v-.037A28.258,28.258,0,0,0,36.662,412.4a24.278,24.278,0,0,0-16.093-6.375H20.4A18.7,18.7,0,0,0,6.024,413.2,26.629,26.629,0,0,0,0,430.552a35.1,35.1,0,0,0,.508,5.843,205.539,205.539,0,0,0,24.467,67.912c4.419,7.738,11.38,12.889,19,14.281a22.205,22.205,0,0,0,3.96.369h.237a18.014,18.014,0,0,0,11.41-4.074l.015-.013a25.049,25.049,0,0,0,8.754-19.481,28.354,28.354,0,0,0-3.691-13.97A162.456,162.456,0,0,1,45.59,428.48Zm21.661,66.969a23.862,23.862,0,0,1-8.32,18.495l-.049.046a17.012,17.012,0,0,1-10.739,3.818H47.91a20.669,20.669,0,0,1-3.731-.346c-7.473-1.372-14.071-6.443-18.233-13.735A207.419,207.419,0,0,1,1.61,436.182a31.657,31.657,0,0,1-.471-5.375v-.065a26.1,26.1,0,0,1,5.743-16.811,17.743,17.743,0,0,1,13.528-6.769h.152a23.186,23.186,0,0,1,15.506,6.193,27.1,27.1,0,0,1,8.414,15.262l.006.028v.023l-.082.014.083-.005a163.447,163.447,0,0,0,19.2,53.295l.01.017a27.265,27.265,0,0,1,3.552,13.42Z" fill="#ef7d00" opacity="0.5"/>
    <path id="Path_345" data-name="Path 345" d="M521.3,661.96h-.1a11.61,11.61,0,0,0-11.234,8.684,60.4,60.4,0,0,1-28.147,36.923,59.572,59.572,0,0,1-45.82,6.1,11.416,11.416,0,0,0-2.987-.4,11.687,11.687,0,0,0-11.239,8.659l0,.026-.007.015a11.713,11.713,0,0,0,8.231,14.364A83.555,83.555,0,0,0,532.337,677l.071-.27a12.11,12.11,0,0,0,.4-3.066A11.608,11.608,0,0,0,521.3,661.96Zm10.421,11.8a10.807,10.807,0,0,1-.333,2.638v.044a82.568,82.568,0,0,1-37.839,50.064l.01.015-.643.373-.638.372-.006-.01a81.429,81.429,0,0,1-61.989,7.979,10.675,10.675,0,0,1-5.417-3.571,10.492,10.492,0,0,1-2.4-6.64l-.018-.01v-.032a10.878,10.878,0,0,1,.345-2.675l.008-.04.007-.023a10.521,10.521,0,0,1,12.872-7.5l.054.015a61.412,61.412,0,0,0,75.217-43.61l.056-.212a10.584,10.584,0,0,1,10.2-7.858h.013a10.332,10.332,0,0,1,2.715.363,10.612,10.612,0,0,1,7.776,10.159l.01.045Z" fill="#ef7d00" opacity="0.5"/>
    <path id="Path_346" data-name="Path 346" d="M463.773,79.643a33.068,33.068,0,0,1,33.035,33.036,11.773,11.773,0,0,0,23.547,0A56.648,56.648,0,0,0,463.773,56.1a11.773,11.773,0,1,0,0,23.546Zm0-22.4h0a55.5,55.5,0,0,1,55.437,55.439,10.63,10.63,0,0,1-21.26,0,34.218,34.218,0,0,0-34.179-34.177,10.631,10.631,0,0,1,0-21.261Z" fill="#ef7d00" opacity="0.5"/>
    <path id="Path_347" data-name="Path 347" d="M205.951,2.83l-.032-.046a6.015,6.015,0,0,0-4.544-2.46h0Q201.049.3,200.726.3a8.631,8.631,0,0,0-5.08,1.654v0a11.359,11.359,0,0,0-1.463,1.227A67.65,67.65,0,0,0,180.5,22.6v0a9.158,9.158,0,0,0-.256,7.708,7.127,7.127,0,0,0,.636,1.113h0a5.785,5.785,0,0,0,3.221,2.315l.049.014,0,0a8.112,8.112,0,0,0,6.747-1.32l0,0a9.2,9.2,0,0,0,3.025-3.582,53.715,53.715,0,0,1,10.716-15.213l.012-.011.006,0a9.179,9.179,0,0,0,2.59-5.351,7.923,7.923,0,0,0,.066-1.019,7.842,7.842,0,0,0-1.368-4.427Zm1.232,5.505a9.087,9.087,0,0,1-2.49,5.165h0l-.031.031-.051.052-.01.01,0,0a53.726,53.726,0,0,0-10.723,15.222l-.017.036-.006,0a9.135,9.135,0,0,1-2.984,3.522l-.009.006a8.018,8.018,0,0,1-6.681,1.291l-.013,0-.027-.005-.006,0a5.763,5.763,0,0,1-3.185-2.294h0l0,0a6.865,6.865,0,0,1-.626-1.1v0a8.942,8.942,0,0,1,.017-7.087c.079-.187.15-.376.242-.559a68.591,68.591,0,0,1,5.178-9.091c.824-1.224,1.674-2.431,2.576-3.6q1.819-2.358,3.842-4.555,1.01-1.1,2.069-2.152a10.436,10.436,0,0,1,1.383-1.161h0l.017-.012h0A8.757,8.757,0,0,1,200.792.374c.19,0,.381.006.572.019h0a6,6,0,0,1,4.5,2.433h0l0,0,.029.041v0a7.79,7.79,0,0,1,1.288,5.463Z" fill="#ef7d00" opacity="0.5"/>
    <path id="Path_348" data-name="Path 348" d="M206.164,2.611v0h0A6.316,6.316,0,0,0,201.394.025Q201.06,0,200.726,0a8.924,8.924,0,0,0-5.256,1.712,11.787,11.787,0,0,0-1.5,1.258,67.932,67.932,0,0,0-13.737,19.5,9.457,9.457,0,0,0-.264,7.96v0a7.486,7.486,0,0,0,.663,1.161,6.093,6.093,0,0,0,3.339,2.421l0,.006.051.013a8.415,8.415,0,0,0,7.05-1.356h0a9.495,9.495,0,0,0,3.121-3.7,53.435,53.435,0,0,1,10.646-15.117l.007-.005.011-.011a9.467,9.467,0,0,0,2.686-5.536A8.147,8.147,0,0,0,206.2,2.659Zm1.088,5.664a9.179,9.179,0,0,1-2.59,5.351l-.006,0-.012.011a53.715,53.715,0,0,0-10.716,15.213,9.2,9.2,0,0,1-3.025,3.582l0,0a8.112,8.112,0,0,1-6.747,1.32l0,0-.049-.014a5.785,5.785,0,0,1-3.221-2.315h0a7.127,7.127,0,0,1-.636-1.113A9.158,9.158,0,0,1,180.5,22.6v0A67.65,67.65,0,0,1,194.182,3.183a11.359,11.359,0,0,1,1.463-1.227v0A8.631,8.631,0,0,1,200.726.3q.322,0,.645.024h0a6.015,6.015,0,0,1,4.544,2.46l.032.046h0a7.842,7.842,0,0,1,1.368,4.427A7.923,7.923,0,0,1,207.252,8.275Z" fill="#ef7d00" opacity="0.5"/>
    <path id="Path_349" data-name="Path 349" d="M205.894,2.87l-.029-.041,0,0a6,6,0,0,0-4.5-2.433h0c-.191-.013-.382-.019-.572-.019a8.757,8.757,0,0,0-5.153,1.678h0l-.017.012h0a10.436,10.436,0,0,0-1.383,1.161q-1.059,1.055-2.069,2.152-2.022,2.195-3.842,4.555c-.9,1.168-1.752,2.375-2.576,3.6a68.539,68.539,0,0,0-5.178,9.092c-.092.182-.163.371-.242.558a8.982,8.982,0,0,0-.017,7.087v0a6.865,6.865,0,0,0,.626,1.1l0,0h0a5.763,5.763,0,0,0,3.185,2.294l.006,0,.027.005.013,0a8.018,8.018,0,0,0,6.681-1.291l.009-.006a9.135,9.135,0,0,0,2.984-3.522l.006,0,.017-.036A53.726,53.726,0,0,1,204.6,13.6l0,0,.01-.01.051-.052.031-.031h0a9.087,9.087,0,0,0,2.49-5.165A7.79,7.79,0,0,0,205.9,2.872Zm.992,5.425a8.8,8.8,0,0,1-2.487,5.077l.075.075.008.013,0,0-.086-.086A54.064,54.064,0,0,0,193.62,28.654l0,0-.017.036a8.822,8.822,0,0,1-2.9,3.44l-.012.01a7.722,7.722,0,0,1-6.452,1.237l-.073-.019a5.465,5.465,0,0,1-2.964-2.159l0-.006a6.521,6.521,0,0,1-.6-1.046,8.779,8.779,0,0,1,.253-7.4v0a68.235,68.235,0,0,1,13.6-19.314A10.338,10.338,0,0,1,195.8,2.308h0l.017-.012h0A8.456,8.456,0,0,1,200.792.674c.184,0,.368.006.552.019h0A5.7,5.7,0,0,1,205.62,3h0l.028.039h0a7.5,7.5,0,0,1,1.308,4.231A7.656,7.656,0,0,1,206.886,8.3Z" fill="#ef7d00" opacity="0.5"/>
    <path id="Path_350" data-name="Path 350" d="M205.863,2.826h0Z" fill="#ef7d00" opacity="0.5"/>
  </g>
</svg>
