<svg xmlns="http://www.w3.org/2000/svg" width="892.018" height="648.526" viewBox="0 0 892.018 648.526">
  <g id="bakterie_6" data-name="bakterie 6" transform="translate(807.164 177.312) rotate(90)">
    <path id="Path_254" data-name="Path 254" d="M51.384,17.651a30.5,30.5,0,0,0,9.676-1.556,12.189,12.189,0,0,1,9.376.668,11.855,11.855,0,0,1,6.128,7.023,13.264,13.264,0,0,1,.631,3.982,11.962,11.962,0,0,1-2.546,7.365A12.3,12.3,0,0,1,68.841,39.3,56.829,56.829,0,0,1,51.28,42.094,62.011,62.011,0,0,1,24.456,35.74,77.223,77.223,0,0,1,3.575,20.9,12.252,12.252,0,0,1,20.929,3.6l.55.549.02-.02a52.585,52.585,0,0,0,12.884,9.218h0A38.212,38.212,0,0,0,51.384,17.651Z" transform="matrix(0.799, -0.602, 0.602, 0.799, -177.312, 501.454)" fill="#ef7d00"/>
    <path id="Path_255" data-name="Path 255" d="M2.783,13.168a10.275,10.275,0,0,1,4.53-2.636A58.953,58.953,0,0,0,25.78,1.846h0l.007-.006a10.242,10.242,0,0,1,6.4-1.825h0a8.8,8.8,0,0,1,5.763,2.492L38,2.552a6.786,6.786,0,0,1,1.847,5.524,9.654,9.654,0,0,1-2.906,5.993,12.755,12.755,0,0,1-1.629,1.369A74.556,74.556,0,0,1,11.62,26.581a10.223,10.223,0,0,1-8.536-1.212,8.026,8.026,0,0,1-1.111-.921A6.531,6.531,0,0,1,.031,20.417l0,0A9.088,9.088,0,0,1,2.783,13.168Z" transform="matrix(-0.819, 0.574, -0.574, -0.819, 292.653, -62.721)" fill="#ef7d00"/>
    <path id="Path_343" data-name="Path 343" d="M5.42,9.65A68.591,68.591,0,0,1,.242.559C.15.376.079.187,0,0,.079.187.15.376.242.558A68.539,68.539,0,0,0,5.42,9.65Z" transform="translate(180.334 715.984)" fill="#ef7d00" opacity="0.5"/>
    <path id="Path_344" data-name="Path 344" d="M45.59,90.478v.037a28.258,28.258,0,0,1-8.928,16.046,24.278,24.278,0,0,1-16.093,6.375H20.4a18.7,18.7,0,0,1-14.371-7.179A26.629,26.629,0,0,1,0,88.406a35.1,35.1,0,0,1,.508-5.843A205.538,205.538,0,0,1,24.979,14.651C29.4,6.913,36.359,1.762,43.979.37A22.205,22.205,0,0,1,47.939,0h.237a18.014,18.014,0,0,1,11.41,4.074l.015.013a25.049,25.049,0,0,1,8.754,19.481,28.354,28.354,0,0,1-3.691,13.97A162.456,162.456,0,0,0,45.59,90.478ZM67.251,23.509a23.862,23.862,0,0,0-8.32-18.495l-.049-.046A17.012,17.012,0,0,0,48.143,1.15H47.91a20.669,20.669,0,0,0-3.731.346C36.706,2.869,30.108,7.94,25.946,15.232A207.419,207.419,0,0,0,1.61,82.776a31.657,31.657,0,0,0-.471,5.375v.065a26.1,26.1,0,0,0,5.743,16.811A17.743,17.743,0,0,0,20.41,111.8h.152A23.186,23.186,0,0,0,36.068,105.6a27.1,27.1,0,0,0,8.414-15.262l.006-.028V90.29l-.082-.014.083.005a163.447,163.447,0,0,1,19.2-53.295l.01-.017a27.265,27.265,0,0,0,3.552-13.42Z" transform="translate(-144 218.21)" fill="#ef7d00" opacity="0.5"/>
    <path id="Path_345" data-name="Path 345" d="M99.944,77.2h-.1a11.61,11.61,0,0,1-11.234-8.684A60.4,60.4,0,0,0,60.468,31.6a59.572,59.572,0,0,0-45.82-6.1,11.416,11.416,0,0,1-2.987.4A11.687,11.687,0,0,1,.422,17.238l0-.026L.41,17.2A11.713,11.713,0,0,1,8.641,2.833,83.555,83.555,0,0,1,110.985,62.164l.071.27a12.11,12.11,0,0,1,.4,3.066A11.608,11.608,0,0,1,99.944,77.2Zm10.421-11.8a10.807,10.807,0,0,0-.333-2.638v-.044A82.568,82.568,0,0,0,72.193,12.657l.01-.015-.643-.373-.638-.372-.006.01A81.429,81.429,0,0,0,8.927,3.928,10.675,10.675,0,0,0,3.51,7.5a10.492,10.492,0,0,0-2.4,6.64l-.018.01v.032a10.878,10.878,0,0,0,.345,2.675l.008.04.007.023a10.521,10.521,0,0,0,12.872,7.5l.054-.015A61.412,61.412,0,0,1,89.6,68.015l.056.212a10.584,10.584,0,0,0,10.2,7.858h.013a10.332,10.332,0,0,0,2.715-.363,10.612,10.612,0,0,0,7.776-10.159l.01-.045Z" transform="translate(359.757 3.95)" fill="#ef7d00" opacity="0.5"/>
    <path id="Path_346" data-name="Path 346" d="M11.774,44.809A33.068,33.068,0,0,0,44.809,11.773a11.773,11.773,0,0,1,23.547,0A56.648,56.648,0,0,1,11.774,68.355a11.773,11.773,0,1,1,0-23.546Zm0,22.4h0A55.5,55.5,0,0,0,67.211,11.769a10.63,10.63,0,0,0-21.26,0A34.218,34.218,0,0,1,11.772,45.946a10.631,10.631,0,0,0,0,21.261Z" transform="translate(314.338 582.358) rotate(-25)" fill="#ef7d00" opacity="0.5"/>
    <path id="Path_348" data-name="Path 348" d="M26.947,31.688v0h0a6.316,6.316,0,0,1-4.769,2.584q-.334.025-.668.025a8.924,8.924,0,0,1-5.256-1.712,11.787,11.787,0,0,1-1.5-1.258,67.932,67.932,0,0,1-13.737-19.5,9.457,9.457,0,0,1-.264-7.96v0A7.486,7.486,0,0,1,1.417,2.7,6.093,6.093,0,0,1,4.756.282l0-.006L4.811.263a8.415,8.415,0,0,1,7.05,1.356h0a9.495,9.495,0,0,1,3.121,3.7A53.435,53.435,0,0,0,25.628,20.434l.007.005.011.011a9.467,9.467,0,0,1,2.686,5.536,8.147,8.147,0,0,1-1.351,5.654Zm1.088-5.664a9.179,9.179,0,0,0-2.59-5.351l-.006,0-.012-.011A53.715,53.715,0,0,1,14.711,5.445a9.2,9.2,0,0,0-3.025-3.582l0,0A8.112,8.112,0,0,0,4.937.541l0,0L4.886.557A5.785,5.785,0,0,0,1.665,2.872h0a7.127,7.127,0,0,0-.636,1.113,9.158,9.158,0,0,0,.256,7.708v0A67.65,67.65,0,0,0,14.965,31.116a11.359,11.359,0,0,0,1.463,1.227v0A8.631,8.631,0,0,0,21.509,34q.322,0,.645-.024h0a6.015,6.015,0,0,0,4.544-2.46l.032-.046h0A7.842,7.842,0,0,0,28.1,27.043,7.923,7.923,0,0,0,28.035,26.024Z" transform="translate(53.754 772.865)" fill="#ef7d00" opacity="0.81"/>
    <path id="Path_350" data-name="Path 350" d="M0,0H0Z" transform="translate(205.863 736.338)" fill="#ef7d00" opacity="0.5"/>
  </g>
</svg>
