<svg xmlns="http://www.w3.org/2000/svg" width="817.814" height="559.067" viewBox="0 0 817.814 559.067">
  <g id="bakterie_1" data-name="bakterie 1" transform="translate(-8.504)">
    <path id="Path_212" data-name="Path 212" d="M223.655,458.294a28.366,28.366,0,0,0-3.691-13.971,162.458,162.458,0,0,1-19.074-52.939v-.037a28.252,28.252,0,0,0-8.928-16.046h0a24.268,24.268,0,0,0-16.093-6.375H175.7a18.7,18.7,0,0,0-14.371,7.179,26.626,26.626,0,0,0-6.02,17.35,35.116,35.116,0,0,0,.508,5.844,205.554,205.554,0,0,0,24.467,67.912c4.419,7.737,11.38,12.889,19,14.28a22.1,22.1,0,0,0,3.96.369,18.007,18.007,0,0,0,11.647-4.073l.015-.012A25.05,25.05,0,0,0,223.655,458.294Zm-9.424,18.554h0c-.018.015-.031.033-.049.046h0a17.015,17.015,0,0,1-10.952,3.816h-.02a20.581,20.581,0,0,1-3.731-.346c-7.473-1.372-14.071-6.443-18.233-13.734a207.427,207.427,0,0,1-24.336-67.544,31.66,31.66,0,0,1-.471-5.376h0v-.064a26.1,26.1,0,0,1,5.743-16.811,17.744,17.744,0,0,1,13.528-6.77h.152a23.187,23.187,0,0,1,15.506,6.194,27.1,27.1,0,0,1,8.414,15.262h0l.006.028h0v.009h0v.013l-.082.015.083-.006h0a163.447,163.447,0,0,0,19.2,53.3l.01.018a27.262,27.262,0,0,1,3.552,13.42v.04h0a23.863,23.863,0,0,1-8.32,18.495Z" fill="#ef7d00" opacity="0.5"/>
    <path id="Path_213" data-name="Path 213" d="M644.612,541.87a11.713,11.713,0,0,0,8.231,14.364A83.649,83.649,0,0,0,755.187,496.9c.024-.09.047-.18.071-.27a12.166,12.166,0,0,0,.4-3.067,11.608,11.608,0,0,0-22.841-3.021A60.406,60.406,0,0,1,704.67,527.47a59.573,59.573,0,0,1-45.82,6.1,11.463,11.463,0,0,0-2.987-.4,11.688,11.688,0,0,0-11.239,8.659l-.006.027Zm.682,3.048h0v-.031a10.921,10.921,0,0,1,.345-2.675h0l.008-.04.007-.024a10.532,10.532,0,0,1,12.871-7.5l.054.014a61.48,61.48,0,0,0,75.218-43.61c.019-.07.038-.141.056-.211a10.585,10.585,0,0,1,10.2-7.859,10.341,10.341,0,0,1,2.728.364,10.612,10.612,0,0,1,7.776,10.158l.01.046v.115h0a10.813,10.813,0,0,1-.333,2.638v.044h0A82.569,82.569,0,0,1,716.4,546.41l.01.016-.643.373h0l-.639.371-.006-.01a81.432,81.432,0,0,1-61.988,7.98,10.682,10.682,0,0,1-5.417-3.572,10.489,10.489,0,0,1-2.4-6.639h0Z" fill="#ef7d00" opacity="0.5"/>
    <path id="Path_215" data-name="Path 215" d="M660.141,23.547a33.068,33.068,0,0,1,33.035,33.035,11.773,11.773,0,0,0,23.547,0A56.648,56.648,0,0,0,660.141,0a11.774,11.774,0,1,0,0,23.547Zm0-22.4h0a55.5,55.5,0,0,1,55.437,55.439,10.63,10.63,0,0,1-21.26,0h0a34.221,34.221,0,0,0-34.179-34.177,10.631,10.631,0,0,1,0-21.261Z" fill="#ef7d00" opacity="0.5"/>
    <path id="Path_221" data-name="Path 221" d="M237.843,183.806a30.531,30.531,0,0,1,9.676,1.556,12.189,12.189,0,0,0,9.376-.668,11.852,11.852,0,0,0,6.128-7.023,13.259,13.259,0,0,0,.631-3.982,11.964,11.964,0,0,0-2.546-7.365,12.306,12.306,0,0,0-5.808-4.167,56.829,56.829,0,0,0-17.561-2.794,62.025,62.025,0,0,0-26.824,6.354,77.224,77.224,0,0,0-20.881,14.838,12.252,12.252,0,1,0,17.354,17.3l.55-.549.02.02a52.584,52.584,0,0,1,12.884-9.218h0A38.225,38.225,0,0,1,237.843,183.806Z" fill="#ef7d00"/>
    <path id="Path_223" data-name="Path 223" d="M789.205,350.69a10.29,10.29,0,0,0,4.53,2.636,58.93,58.93,0,0,1,18.467,8.685h0l.007.007a10.248,10.248,0,0,0,6.405,1.825h0a8.807,8.807,0,0,0,5.763-2.493l.044-.045a6.783,6.783,0,0,0,1.847-5.523,9.654,9.654,0,0,0-2.906-5.994,12.753,12.753,0,0,0-1.629-1.369,74.553,74.553,0,0,0-23.691-11.142,10.219,10.219,0,0,0-8.536,1.212,8.022,8.022,0,0,0-1.11.92,6.535,6.535,0,0,0-1.943,4.031l0,0A9.087,9.087,0,0,0,789.205,350.69Z" fill="#ef7d00"/>
    <g id="Group_84" data-name="Group 84" opacity="0.5">
      <path id="Path_273" data-name="Path 273" d="M24.91,128.418l.016-.011a8.754,8.754,0,0,1,5.153-1.678c.19,0,.38.006.57.019h0a6,6,0,0,1,4.5,2.433v0h0l.027.039,0,0a7.776,7.776,0,0,1,1.287,5.465h0a9.088,9.088,0,0,1-2.49,5.165h0l-.052.05-.031.032-.008.008,0,0a53.769,53.769,0,0,0-10.727,15.224l-.017.036,0,0a9.142,9.142,0,0,1-2.984,3.522h0l-.009.006a8.015,8.015,0,0,1-6.678,1.29l-.014,0-.027-.006h-.006a5.766,5.766,0,0,1-3.185-2.295l0,0a6.909,6.909,0,0,1-.626-1.1v0h0a9.084,9.084,0,0,1,.261-7.646,68.539,68.539,0,0,1,13.664-19.4l-.021.021.021-.021a10.511,10.511,0,0,1,1.383-1.161h0m5.1-1.763a8.625,8.625,0,0,0-5.079,1.653l0,0a11.356,11.356,0,0,0-1.463,1.228h0A67.611,67.611,0,0,0,9.79,148.956v0a9.156,9.156,0,0,0-.256,7.707,7.126,7.126,0,0,0,.636,1.113v0A5.791,5.791,0,0,0,13.39,160.1l.054.015v0a8.107,8.107,0,0,0,6.742-1.322h0a9.2,9.2,0,0,0,3.025-3.583h0A53.715,53.715,0,0,1,33.931,140l.012-.012.006,0a9.166,9.166,0,0,0,2.589-5.349h0a7.838,7.838,0,0,0-1.3-5.447h0l-.031-.045h0a6.016,6.016,0,0,0-4.544-2.459h0q-.324-.024-.646-.024" fill="#ef7d00"/>
      <path id="Path_274" data-name="Path 274" d="M25.1,128.649a8.462,8.462,0,0,1,4.977-1.62q.276,0,.552.018h0a5.7,5.7,0,0,1,4.275,2.311l.027.038h0a7.48,7.48,0,0,1,1.237,5.254h0a8.78,8.78,0,0,1-2.486,5.075l.064.064.018.025,0,0-.086-.086a54.073,54.073,0,0,0-10.772,15.276l0,0-.017.036a8.837,8.837,0,0,1-2.9,3.439l-.01.007,0,0h0a7.716,7.716,0,0,1-6.451,1.238l-.076-.02a5.467,5.467,0,0,1-2.962-2.158v0l0,0h0a6.662,6.662,0,0,1-.6-1.048,8.785,8.785,0,0,1,.255-7.394v0a68.25,68.25,0,0,1,13.6-19.313h0a10.26,10.26,0,0,1,1.343-1.128h0l.017-.012,0,0h0m4.977-1.92a8.754,8.754,0,0,0-5.153,1.678l-.016.011h0a10.511,10.511,0,0,0-1.383,1.161l-.021.021.021-.021a68.553,68.553,0,0,0-13.665,19.4,9.086,9.086,0,0,0-.26,7.645h0v0a6.909,6.909,0,0,0,.626,1.1l0,0a5.766,5.766,0,0,0,3.185,2.295h.006l.027.006.014,0a8.015,8.015,0,0,0,6.678-1.29l.009-.006h0a9.142,9.142,0,0,0,2.984-3.522l0,0,.017-.036a53.769,53.769,0,0,1,10.727-15.224l0,0,.008-.008.031-.032.052-.05h0a9.088,9.088,0,0,0,2.49-5.165h0a7.776,7.776,0,0,0-1.287-5.465l0,0-.027-.039h0v0a6,6,0,0,0-4.5-2.433h0c-.19-.013-.38-.019-.57-.019M9.532,156.667a9.156,9.156,0,0,1,.256-7.707v0a67.611,67.611,0,0,1,13.679-19.418h0a11.356,11.356,0,0,1,1.463-1.228l0,0a8.625,8.625,0,0,1,5.079-1.653q.323,0,.646.024h0a6.016,6.016,0,0,1,4.544,2.459h0l.031.045h0a7.838,7.838,0,0,1,1.3,5.447h0a9.166,9.166,0,0,1-2.589,5.349l-.006,0-.012.012a53.715,53.715,0,0,0-10.716,15.213h0a9.2,9.2,0,0,1-3.025,3.583h0a8.107,8.107,0,0,1-6.742,1.322v0l-.054-.015a5.791,5.791,0,0,1-3.221-2.314v0a7.126,7.126,0,0,1-.636-1.113m20.481-30.312a8.923,8.923,0,0,0-5.256,1.711h0a11.635,11.635,0,0,0-1.5,1.259h0a67.909,67.909,0,0,0-13.74,19.5,9.459,9.459,0,0,0-.262,7.957h0v0a7.5,7.5,0,0,0,.663,1.162h0a6.091,6.091,0,0,0,3.334,2.419l.005.006.055.014a8.4,8.4,0,0,0,7.047-1.354h0a9.5,9.5,0,0,0,3.124-3.7h0A53.43,53.43,0,0,1,34.132,140.22l.007-.005.011-.012a9.464,9.464,0,0,0,2.686-5.536v0a8.153,8.153,0,0,0-1.351-5.656h0l-.033-.047v0a6.315,6.315,0,0,0-4.771-2.583q-.333-.025-.666-.025" fill="#ef7d00"/>
    </g>
  </g>
</svg>
