<svg xmlns="http://www.w3.org/2000/svg" width="68.973" height="65.466" viewBox="0 0 68.973 65.466">
  <g id="dla_kotow" data-name="dla kotow" transform="translate(-496 -671)">
    <path id="Rectangle_828" data-name="Rectangle 828" d="M8,0H53a8,8,0,0,1,8,8v3A50,50,0,0,1,11,61H8a8,8,0,0,1-8-8V8A8,8,0,0,1,8,0Z" transform="translate(496 671)" fill="#fef2e5"/>
    <path id="Path_269" data-name="Path 269" d="M622.583,384.79c-.1-.1-.194-.2-.3-.3a4.9,4.9,0,0,0-3.3-1.272l-.193,0h-.006a4.934,4.934,0,0,0-4.625,4.923v.143a33.233,33.233,0,0,0,1.034,6.016h0l.226.97a16.284,16.284,0,0,1,.474,3.6,4.93,4.93,0,0,1-1.01,3.39,4.322,4.322,0,0,1-3.375,1.18l-.047,0a11.314,11.314,0,0,0,2.241-7.087,17.646,17.646,0,0,0-1.153-6.056v0h0a17.519,17.519,0,0,0-7.346-8.666h0a9.408,9.408,0,0,1-3.719-4.024,7.1,7.1,0,0,1-.506-1.5c-.04-.187-.062-.336-.075-.44l-.013-.12,0-.027a12.332,12.332,0,0,0,.116-1.64,6.746,6.746,0,0,0-1.3-4.283,5.19,5.19,0,0,0-3.038-1.853,5.19,5.19,0,0,1-.691-1.174h0a7.221,7.221,0,0,0-1.4-2.175l-.019-.021-.024-.016a2.652,2.652,0,0,0-2.622-.194h0l0,0-.005,0h0a.81.81,0,0,0-.48.739l.008.1h0l0,.042c.017.121.271,1.66.408,3.451a3.978,3.978,0,0,0-2.454,3.043v.013a2.055,2.055,0,0,1-.7,1.33h0a2.191,2.191,0,0,0-.807,1.7v.079h0a4.138,4.138,0,0,0,1,2.182,7.4,7.4,0,0,0,1.026,1.037h0l.007.006h0a.767.767,0,0,0,.493.182l.056,0h0l1.809-.088c.033,0,.057,0,.078.007a1.676,1.676,0,0,1,.021.294,5.127,5.127,0,0,1-.034.544,8.851,8.851,0,0,1-.6,1.938l0,.006,0,.006a11.6,11.6,0,0,0-.991,4.1,5.731,5.731,0,0,0,.176,1.43l0,.01,0,.011a36.436,36.436,0,0,0,1.813,4.272l.042,10.392-1.952,1a.811.811,0,0,0-.441.723.777.777,0,0,0,.065.317l.615,1.457a.812.812,0,0,0,.75.5h18.24a12.433,12.433,0,0,0,1.431.084h.023c.138.01.275.015.412.015a5.892,5.892,0,0,0,4.167-1.727l0,0,.006-.006a6.525,6.525,0,0,0,1.417-4.495,17.782,17.782,0,0,0-.509-3.948l-.228-.976v0l0-.005a31.778,31.778,0,0,1-.991-5.7l0-.114a3.265,3.265,0,0,1,3.078-3.258l.142,0a3.22,3.22,0,0,1,3.216,3.08l0,.144a3.221,3.221,0,0,1-1.044,2.372.814.814,0,0,0,1.1,1.2,4.851,4.851,0,0,0,.3-6.852Zm-25.2,18.553a1.341,1.341,0,0,1-.078-.377,1.311,1.311,0,0,1,.083-.454,1.888,1.888,0,0,1,1.027-.841h4.952a.812.812,0,0,0,.021-1.623v0a4.708,4.708,0,0,1-4.3-4.684q0-.2.018-.411a4.707,4.707,0,0,1,4.283-4.284v0a.812.812,0,0,0-.021-1.623h-.01a6.128,6.128,0,0,0-5.9,6.12l0,.2v.058a6.451,6.451,0,0,0,1.964,4.63h-1.168l-.172.025-.018,0-.017.005a3.6,3.6,0,0,0-2.141,1.75l-.006.011,0,.01a2.764,2.764,0,0,0-.218,1.077,2.866,2.866,0,0,0,.056.419h-3.378l-.11-.254,1.721-.885h0a.808.808,0,0,0,.444-.724l-.048-11.106-.063-.273-.007-.03-.013-.027a36.5,36.5,0,0,1-1.788-4.158,4.117,4.117,0,0,1-.124-1.021,10.186,10.186,0,0,1,.886-3.519h0a10.165,10.165,0,0,0,.691-2.307h0v0l0-.016h0a2.7,2.7,0,0,0,.082-.656,2.741,2.741,0,0,0-.414-1.448l-.014-.021-.018-.019a1.715,1.715,0,0,0-1.24-.53l-.069,0-1.557.074a3.756,3.756,0,0,1-1.211-1.914V374.5l.046-.138a2.858,2.858,0,0,1,.293-.332h0a3.665,3.665,0,0,0,1.17-2.282v0a2.087,2.087,0,0,1,.98-1.484,3.337,3.337,0,0,1,.92-.43l.024-.006.073-.035,0,0,.1-.053.019-.01.1-.073.019-.015.095-.107.016-.018.06-.1.012-.022.047-.133.007-.022.019-.123v0l.009-.062,0-.025V369c-.081-1.4-.246-2.7-.357-3.483a.7.7,0,0,1,.337.1,6.319,6.319,0,0,1,1.015,1.649h0a4.173,4.173,0,0,0,1.349,1.878l.016.013.152.084.047.026.056.031h.074l.008,0,.018.006.019,0a3.511,3.511,0,0,1,2.177,1.293,5.178,5.178,0,0,1,.948,3.3,11.719,11.719,0,0,1-.107,1.516l0,.016v.017a7.539,7.539,0,0,0,.7,2.722,10.987,10.987,0,0,0,4.4,4.848l0,0a15.629,15.629,0,0,1,7.7,13.328,9.265,9.265,0,0,1-2.1,6.32l-.011.012-.1.133-.01.014-.291.52Z" transform="translate(-58.885 331.376)" fill="#ef7d00"/>
  </g>
</svg>
