<svg xmlns="http://www.w3.org/2000/svg" width="71.8" height="65.466" viewBox="0 0 71.8 65.466">
  <g id="dla_psow" data-name="dla psow" transform="translate(-333 -671)">
    <path id="Rectangle_827" data-name="Rectangle 827" d="M8,0H53a8,8,0,0,1,8,8v3A50,50,0,0,1,11,61H8a8,8,0,0,1-8-8V8A8,8,0,0,1,8,0Z" transform="translate(333 671)" fill="#fef2e5"/>
    <path id="Path_268" data-name="Path 268" d="M707.108,391.068H707.1a5.367,5.367,0,0,1-3.253-1.357c-2.645-2.259-3.6-6.689-3.683-7.131l0-.186a5.177,5.177,0,0,0-.831-2.813c-1.181-1.794-3.46-2.817-6.7-3.106-1.045-.092-2.038-.1-2.784-.1-.424,0-.852,0-1.286.009h0c-.469.018-.939.027-1.407.027a36.234,36.234,0,0,1-6.523-.592,8.7,8.7,0,0,1-4.922-2.9,35.664,35.664,0,0,1-1.966-5.174v0l0-.005a2.129,2.129,0,0,0-.967-1.1,10.716,10.716,0,0,0-4.82-1.118h-.113a5.6,5.6,0,0,0-1.231.137H666.6a7.049,7.049,0,0,0-1.581.625,3.63,3.63,0,0,0-1.746,1.832,1.554,1.554,0,0,1-.815.631,13.83,13.83,0,0,1-1.512.559h0a5.834,5.834,0,0,0-2.253,1.07l-.016.012-.014.015a2.136,2.136,0,0,0-.569,1.452l0,.11v.013a5.968,5.968,0,0,0,1.662,3.534h0l0,0a1.284,1.284,0,0,0,.645.324,5.926,5.926,0,0,0,1.281.1c1.516,0,3.686-.234,4.479-.325l1.7,1.182,1.411,3.692a6.862,6.862,0,0,0-.145,1.45,9.977,9.977,0,0,0,2.483,6.358l1.214,10.722-2.5.786a.817.817,0,0,0-.576.78v.015h0l.049,2.087a.814.814,0,0,0,.812.795H676.6a.815.815,0,0,0,.81-.735l1.248-12.942a18.284,18.284,0,0,0,7.549-1.735h0c.5-.2.965-.392,1.383-.537a4.826,4.826,0,0,1,1.578-.273,4.007,4.007,0,0,1,.45.033,9.65,9.65,0,0,0,4.882,5.757l.816,6.165-1.69.564a.818.818,0,0,0-.555.774v.014h0l.037,2.115a.814.814,0,0,0,.812.8h5.432a.812.812,0,0,0,.812-.808l.074-10.757v-.008a9.214,9.214,0,0,0-.143-1.169v0a22.856,22.856,0,0,1-.358-4.026c0-.041,0-.082,0-.123a13.342,13.342,0,0,0,2.1,3.441,7.273,7.273,0,0,0,5.183,2.661h.06a.812.812,0,0,0,.812-.792v-.023A.814.814,0,0,0,707.108,391.068Zm-12.394,10.787-.013-.722,1.761-.588a.816.816,0,0,0,.555-.773l-.006-.1-.96-7.267a.817.817,0,0,0-.495-.64v0a8.131,8.131,0,0,1-4.508-5.368h0a.816.816,0,0,0-.543-.588l-.005,0h0a4.689,4.689,0,0,0-1.252-.17h-.086a6.473,6.473,0,0,0-2.1.363c-.452.157-.938.353-1.46.565l-.007,0-.006,0a16.6,16.6,0,0,1-7.128,1.608c-.164,0-.328,0-.492-.007h0l-.05,0a.809.809,0,0,0-.8.737h0l-1.25,12.952H671.42l-.015-.68,2.564-.806a.81.81,0,0,0,.57-.773l-.005-.092-1.315-11.627a.813.813,0,0,0-.192-.435,8.44,8.44,0,0,1-2.258-5.5,4.734,4.734,0,0,1,.148-1.269h0l.037-.241a.812.812,0,0,0-.053-.288l-1.589-4.164v0a.82.82,0,0,0-.294-.374l-2.165-1.5h0a.785.785,0,0,0-.46-.15l-.072.005-.037,0c-.2.021-2.921.348-4.584.348-.315,0-.533-.012-.679-.024-.08-.006-.131-.012-.173-.016a4.37,4.37,0,0,1-1.116-2.369l0-.047a.521.521,0,0,1,.108-.311,5.39,5.39,0,0,1,1.607-.69l.009,0,.009,0a12.415,12.415,0,0,0,1.975-.776,2.732,2.732,0,0,0,1.373-1.4,2,2,0,0,1,.918-.921,5.378,5.378,0,0,1,1.274-.52,3.971,3.971,0,0,1,.624-.068,11.8,11.8,0,0,0-1.184,4.473,3.79,3.79,0,0,0,.342,1.672v0a2.788,2.788,0,0,0,2.1,1.509h.014a6.2,6.2,0,0,0,1.079.109h.011l.146,0a2.667,2.667,0,0,0,1.645-.567l0,0,0,0a3.384,3.384,0,0,0,.887-2.733c0-.272-.008-.548-.016-.825v-.01c-.014-.21-.021-.421-.021-.631,0-.154.012-.308.02-.461a32.058,32.058,0,0,0,1.67,4.074l.012.025.018.022a10.261,10.261,0,0,0,5.964,3.587h0a35.451,35.451,0,0,0,6.526.606l.369,0c.462,0,.916,0,1.364-.009h0c.431,0,.852-.009,1.266-.009.716,0,1.662.012,2.64.1,2.8.248,4.623,1.071,5.474,2.361a3.912,3.912,0,0,1,.416,3.12l0,.014,0,.016a21.518,21.518,0,0,0,.116,7.4v0a9.344,9.344,0,0,1,.121.928l-.073,9.928Zm-25.333-34.592a9.16,9.16,0,0,1,1.943.488,8.776,8.776,0,0,0-.324,2.321q0,.392.035.783h0c.008.268.015.531.015.778a5.074,5.074,0,0,1-.071.969.939.939,0,0,1-.234.511,1.95,1.95,0,0,1-1.528.121l-.026-.009-.027,0a1.178,1.178,0,0,1-.922-.626,2.173,2.173,0,0,1-.177-.944A11.564,11.564,0,0,1,669.381,367.263Z" transform="translate(-303.1 332.984)" fill="#ef7d00"/>
  </g>
</svg>
