<svg xmlns="http://www.w3.org/2000/svg" width="53.626" height="55" viewBox="0 0 53.626 55">
  <g id="nie_zawiera_glutenu" data-name="nie zawiera glutenu" transform="translate(-290.984 -559.131)">
    <rect id="Rectangle_882" data-name="Rectangle 882" width="73.852" height="1.986" transform="translate(290.984 612.727) rotate(-45)" fill="#ef7d00"/>
    <g id="Group_89" data-name="Group 89">
      <path id="Path_293" data-name="Path 293" d="M308.1,591.312c-.462,0-.739-.093-.924-.093h-.092a.709.709,0,0,0-.461.185.7.7,0,0,0-.185.461v.093a4.641,4.641,0,0,0,.185.831Z" fill="#ef7d00"/>
      <path id="Path_294" data-name="Path 294" d="M329.3,591.862a.854.854,0,0,0-.223-.559l-.005-.005-.005,0a.859.859,0,0,0-.559-.224H328.4l-.018.005c-.35.088-1.1.183-2.03.461l-.636.127.252-.568,0,0v0a31.745,31.745,0,0,0,1.855-6.771l0-.012V584.2h0v-.011a.79.79,0,0,0-.683-.783l-.073-.01-2.094,2.1,1.045-.262-.06.419a38.687,38.687,0,0,1-1.56,5.151h0a2.588,2.588,0,0,1-.611.959,3.287,3.287,0,0,1-1.938.882h-.3v-.417a5.765,5.765,0,0,0-.568-2.085h0a.334.334,0,0,0-.073-.133l0,0v-.3l-1.449,1.208.065.11a1.447,1.447,0,0,1,.167.418l0,.011,0,.011a2.672,2.672,0,0,1,.173.692,2.1,2.1,0,0,1-2.067,2.059h-.005l-.079,0a1.709,1.709,0,0,1-1.025-.342l-.108-.081-1.259,1.373.211.075a.78.78,0,0,1,.388.31l.009.014.011.011A3.549,3.549,0,0,1,317,598.1v.042a3.71,3.71,0,0,1-1.064,2.577,3.551,3.551,0,0,1-2.534,1.064h-.04a3.713,3.713,0,0,1-2.577-1.065l0,0h0a1.909,1.909,0,0,1-.343-.428l-.1-.167-1.141,1.141.058.1a2.17,2.17,0,0,0,.394.492h0l0,0v0h0a5.173,5.173,0,0,0,3.652,1.509h.059v0a5.39,5.39,0,0,0,3.132-1.044l.5-.377v11.977h1.589V601.948l.5.376a5.4,5.4,0,0,0,3.135,1.045h.043a5.176,5.176,0,0,0,3.664-1.521l0,0,0,0a6.657,6.657,0,0,0,1.225-2.073h0l0-.005h0a28.031,28.031,0,0,0,1.02-2.965,48.646,48.646,0,0,0,1.11-4.815l0-.013v-.109Zm-1.953,1.444,0,0v0a28.6,28.6,0,0,1-1.929,6.153v0h0a4.325,4.325,0,0,1-.71,1.156,3.547,3.547,0,0,1-2.528,1.06h-.041a3.7,3.7,0,0,1-2.578-1.065,3.547,3.547,0,0,1-1.064-2.535v-.021a5.86,5.86,0,0,1,1.167-2.5,3.644,3.644,0,0,1,1.145-.7l.007,0,.006,0c.54-.27,1.089-.454,1.739-.732,1.374-.457,2.94-.826,4.417-1.2l.5-.124Z" fill="#ef7d00"/>
      <path id="Path_295" data-name="Path 295" d="M309.811,582.966v0l.251.565-.542-.121v0a1.963,1.963,0,0,0-.607-.1h-.179a.781.781,0,0,0-.78.762v.144l.005.018c.182.731.737,3.507,1.479,5.825l.074.233,1.256-1.256-.032-.089c-.365-1-.642-2.2-.919-3.308l0-.016-.231-.463.423.106c1.11.277,2.307.554,3.309.919l.089.032,3.589-3.588.01-.017a9.032,9.032,0,0,0,.461-.924h0l.257-.449.141.187.1.138,1.148-1.148-.189-.2-.007-.007-.111-.167.13-.194,0,0v0a2.334,2.334,0,0,1,.434-.521l0,0,0,0a2.582,2.582,0,0,1,.96-.611l.009,0,.009-.005a4.323,4.323,0,0,1,.626-.268l.033-.011,4.755-4.755.012-.031a27.124,27.124,0,0,0,1.286-4.685l.017-.017v-.154h0v-.014a.78.78,0,0,0-.762-.781h-.146l-.02,0a8.532,8.532,0,0,1-1.361.273h-.008l-.582.129.193-.579v0h0a34.646,34.646,0,0,0,1.295-4.725l0-.015v-.123a.779.779,0,0,0-.761-.779h-.14l-.013,0a26.286,26.286,0,0,0-5.663,1.676l-.008,0-.431.247v-1.712l1.913-1.821.012-.025a1.152,1.152,0,0,0,.112-.5v-.034h0a.8.8,0,0,0-.8-.792H319.9a.8.8,0,0,0-.543.224h0l-1.557,1.471-1.56-1.561h0a.817.817,0,0,0-1.128,0h0l0,0a.826.826,0,0,0-.233.574l.006.087h0v.014h0a.855.855,0,0,0,.221.544l0,0,1.9,1.806V564.1l-.423-.241-.008-.005-.008,0a26.263,26.263,0,0,0-5.663-1.672l-.013,0h-.121a.781.781,0,0,0-.78.762v.141l0,.015a34.89,34.89,0,0,0,1.3,4.726h0l.193.579-.574-.128H310.9c-.633-.089-1.072-.273-1.406-.279h-.108a.781.781,0,0,0-.78.762v.14l0,.014a39.738,39.738,0,0,0,1.668,6.116v.005l.252.566-.543-.121-.006,0h-.008a5.743,5.743,0,0,1-1.17-.27l-.023-.008h-.135a.781.781,0,0,0-.78.762v.14l0,.015A44.081,44.081,0,0,0,309.811,582.966ZM319.036,577a1.235,1.235,0,0,1-1.235,1.233h0A1.236,1.236,0,0,1,316.564,577l.039-.183a1.161,1.161,0,0,0,.044-.225c.094-.2.1-.293.179-.449.189-.377.371-.833.641-1.279v0l.24-.422.241.42v0l0,0a9.234,9.234,0,0,1,.817,1.726l.02.056.053.027a.358.358,0,0,1,.2.319Zm5.715-7.148h0l.509-.128-.13.6v0a18.45,18.45,0,0,1-1.465,4.487h0a3.111,3.111,0,0,1-.526.79,2.716,2.716,0,0,1-1.909.786h-.09a1.639,1.639,0,0,1-.524-.086l-.207-.069-.069-.206v0h0a14.378,14.378,0,0,0-1.578-3.156l-.058-.118.059-.118h0v0a3.148,3.148,0,0,1,.616-.879,3.028,3.028,0,0,1,.789-.526l0,0,.005,0a4.094,4.094,0,0,1,1.245-.445l.012,0,.011,0A24.239,24.239,0,0,1,324.751,569.852Zm-5.729-3.925.261-.262a3.861,3.861,0,0,1,.616-.44,9.579,9.579,0,0,1,.9-.361h0a19.46,19.46,0,0,1,2.475-.733h0l.5-.124-.125.5a26.407,26.407,0,0,1-1.1,3.489,1.5,1.5,0,0,1-.419.587l-.005.005-.005,0a2.012,2.012,0,0,1-1.435.6h-.383l-.058-.175v-.006a17.985,17.985,0,0,0-1.292-2.687l-.066-.2ZM317,568.967l0-.006c.2-.311.291-.666.55-1.01l-.049-.036.062.014.237-.472.236.472h0a10.08,10.08,0,0,0,.551,1.011,6.658,6.658,0,0,0,.26.694,1.049,1.049,0,0,1-2.1-.015,1.074,1.074,0,0,1,.243-.646Zm-4.68-4.837a26.552,26.552,0,0,1,3.489,1.1,1.519,1.519,0,0,1,.588.42l0,0,.27.271.122.182-.13.194v0a11.981,11.981,0,0,0-1.307,2.715l-.058.175h-.361l-.08,0a1.876,1.876,0,0,1-1.373-.6,3.74,3.74,0,0,1-.439-.615,9.113,9.113,0,0,1-.361-.9v0a19.347,19.347,0,0,1-.734-2.474l-.133-.6Zm-1.836,6.242h0l-.013-.054-.124-.5.5.124h.008a18.352,18.352,0,0,1,4.487,1.465,3.087,3.087,0,0,1,.791.527,3.174,3.174,0,0,1,.616.88v0l.059.119-.055.111a12.569,12.569,0,0,0-1.581,3.165l-.07.206-.2.068c-.212.015-.376.088-.6.085h-.015a2.715,2.715,0,0,1-1.909-.785,3.076,3.076,0,0,1-.526-.79l0-.005,0-.005a4.086,4.086,0,0,1-.446-1.245v-.009C311.115,572.636,310.754,571.544,310.48,570.372Zm-.475,6.774h0a38.68,38.68,0,0,1,5.15,1.563h0a2.615,2.615,0,0,1,.961.611l0,0,0,0a2.328,2.328,0,0,1,.433.521l0,0,.132.2-.127.192h0a15.876,15.876,0,0,0-1.956,4.007l0,.005-.065.262h-.624a3.071,3.071,0,0,1-2.112-.88,2.6,2.6,0,0,1-.611-.961v-.005c-.185-.461-.368-.919-.551-1.468a35.529,35.529,0,0,1-1.012-3.677v0l-.125-.5Z" fill="#ef7d00"/>
    </g>
  </g>
</svg>
