<svg xmlns="http://www.w3.org/2000/svg" width="53.519" height="55" viewBox="0 0 53.519 55">
  <g id="nie_zawiera_substancji_konserwujacych" data-name="nie zawiera substancji konserwujacych" transform="translate(-353.023 -233.042)">
    <g id="Group_85" data-name="Group 85">
      <path id="Path_275" data-name="Path 275" d="M385.514,279.382h1.859v-1.767h-1.859v1.767Z" fill="#ef7d00"/>
      <rect id="Rectangle_879" data-name="Rectangle 879" width="1.75" height="1.566" transform="translate(377.051 252.114)" fill="#ef7d00"/>
      <path id="Path_276" data-name="Path 276" d="M397.5,255.422h0l-.092,0a2.317,2.317,0,0,0-1.574.625l-3.694-2.215-1.344,1.345,4.114,2.431v.4a2.588,2.588,0,1,0,2.594-2.586Zm-.006,3.406h-.006l-.048,0a.77.77,0,0,1-.767-.724v-.1a.823.823,0,0,1,.821-.821h0a.82.82,0,1,1,0,1.64Z" fill="#ef7d00"/>
      <path id="Path_277" data-name="Path 277" d="M363.4,270.817h.021c.3,0,.581-.1.736-.093h.042l1.85-1.85-.134-.135v-.551a2.555,2.555,0,0,0-1.75-2.422v-5.388a2.555,2.555,0,0,0,1.75-2.421v-.537l4.316-2.607a2.743,2.743,0,0,0,1.659.625l.094,0a2.313,2.313,0,0,0,1.575-.626l4.059,2.4,1.345-1.344-4.409-2.627a.593.593,0,0,1-.082-.292l.007-.085v-.055a2.555,2.555,0,0,0-1.75-2.422v-2.795h-1.767v2.8a2.72,2.72,0,0,0-1.657,2.449h0v.005h0l0,.09a1.26,1.26,0,0,0,.086.414l-4.3,2.6a2.747,2.747,0,0,0-1.66-.626h-.012a2.578,2.578,0,0,0-2.578,2.567v.022h0a2.721,2.721,0,0,0,1.657,2.455v5.4a2.722,2.722,0,0,0-1.657,2.455v.012A2.578,2.578,0,0,0,363.4,270.817Zm.02-12.081a.82.82,0,1,1,.821-.82A.822.822,0,0,1,363.421,258.736Zm0,8.673a.82.82,0,1,1-.821.821A.823.823,0,0,1,363.422,267.409Zm8.564-15.379a.82.82,0,0,1,.819.814.972.972,0,0,1-.825.826.82.82,0,0,1,.006-1.64Z" fill="#ef7d00"/>
      <path id="Path_278" data-name="Path 278" d="M365.9,259.666v6.916h1.767v-7.017H365.9Z" fill="#ef7d00"/>
      <path id="Path_279" data-name="Path 279" d="M363.509,240.058h0l.1,0a2.318,2.318,0,0,0,1.574-.625l4.3,2.6a4.594,4.594,0,0,0-.084.5,2.587,2.587,0,0,0,5.174.007h0l0-.1a1.259,1.259,0,0,0-.086-.413l4.305-2.6a2.74,2.74,0,0,0,1.66.625l.094,0a2.317,2.317,0,0,0,1.574-.625l4.3,2.6a4.622,4.622,0,0,0-.083.5h0A2.72,2.72,0,0,0,388,244.994v1.838l1.737-1.738,1.585-1.585.007-.025a2.633,2.633,0,0,0,.1-.722l0-.134,0-.142a2.447,2.447,0,0,0-2.3-2.441h0l-.19,0h0l-.094,0a2.32,2.32,0,0,0-1.573.624l-4.219-2.694v-.54a2.555,2.555,0,0,0-1.75-2.421v-1.966h-1.768v1.973a2.717,2.717,0,0,0-1.658,2.447h0v0h0l0,.092a1.273,1.273,0,0,0,.085.412l-4.3,2.6a2.743,2.743,0,0,0-1.659-.625l-.1,0a2.317,2.317,0,0,0-1.574.625l-4.3-2.6a4.6,4.6,0,0,0,.084-.5,2.587,2.587,0,1,0-2.591,2.587Zm9.3,2.56a.973.973,0,0,1-.826.83.82.82,0,0,1,.006-1.64h.053a.769.769,0,0,1,.767.723Zm-10.2-5.147a.82.82,0,1,1,.82.82A.822.822,0,0,1,362.6,237.471Zm26.416,5.977a.82.82,0,1,1,.825-.826A.974.974,0,0,1,389.016,243.448Zm-9.379-5.977a.821.821,0,1,1,.82.82A.821.821,0,0,1,379.637,237.471Z" fill="#ef7d00"/>
      <path id="Path_280" data-name="Path 280" d="M398.332,274.223V270.6a2.6,2.6,0,0,0-.833-5.049h0l-.092,0a2.317,2.317,0,0,0-1.574.625l-4.3-2.6a4.552,4.552,0,0,0,.084-.5,2.587,2.587,0,0,0-5.174-.007h0l0,.1a1.278,1.278,0,0,0,.085.413l-4.4,2.6a3.894,3.894,0,0,0-.731-.406v-1.187L377.872,268v.132l0,.09a1.283,1.283,0,0,0,.085.413l-1.793,1.078-3.443,3.447v.135a.821.821,0,0,1-.821.819h-.136l-1.315,1.315.1.068a2.319,2.319,0,0,0,1.288.39l.151-.005h.005a2.635,2.635,0,0,0,2.58-2.579h0V273.3h0l0-.091a1.26,1.26,0,0,0-.086-.414l4.308-2.6a2.668,2.668,0,0,0,1.594.535h.076a2.577,2.577,0,0,0,2.577-2.566v-.024l0-.09a1.278,1.278,0,0,0-.085-.413l4.3-2.6a2.756,2.756,0,0,0,1.66.626h.093a2.317,2.317,0,0,0,1.576-.625l4.3,2.6a4.877,4.877,0,0,0-.083.5v0a2.721,2.721,0,0,0,1.657,2.455v3.629Zm-9.311-11.97a.82.82,0,1,1-.821.82A.822.822,0,0,1,389.021,262.253Zm9.3,5.977a.821.821,0,0,1-.82.82h-.053a.77.77,0,0,1-.768-.723v-.1a.821.821,0,1,1,1.641,0Zm-17.858-.821a.82.82,0,1,1-.82.821A.823.823,0,0,1,380.458,267.409Z" fill="#ef7d00"/>
      <path id="Path_281" data-name="Path 281" d="M397.5,275.866v0h-.011a2.577,2.577,0,0,0-2.578,2.566v.02l0,.089a1.26,1.26,0,0,0,.086.414l-4.3,2.6a2.742,2.742,0,0,0-1.66-.625l-.094,0a2.312,2.312,0,0,0-1.574.625l-4.3-2.6a4.867,4.867,0,0,0,.083-.5,2.587,2.587,0,0,0-5.173-.007h0l0,.1a1.259,1.259,0,0,0,.086.414l-4.307,2.6a2.671,2.671,0,0,0-1.6-.536h-.066a2.587,2.587,0,1,0,2.589,2.6h0v-.007h0l0-.091a1.267,1.267,0,0,0-.085-.411l4.3-2.6a2.746,2.746,0,0,0,1.659.626l.1,0a2.317,2.317,0,0,0,1.574-.625l4.3,2.6a4.529,4.529,0,0,0-.084.5v0a2.72,2.72,0,0,0,1.657,2.455v1.971h1.768V285.98a2.555,2.555,0,0,0,1.75-2.421v-.541l4.316-2.6a2.746,2.746,0,0,0,1.659.625h.013a2.578,2.578,0,0,0,2.578-2.566v-.026A2.715,2.715,0,0,0,397.5,275.866Zm0,3.406a.82.82,0,0,1,.005-1.639h.006l.047,0a.77.77,0,0,1,.767.723v.093A.889.889,0,0,1,397.492,279.272Zm-25.51,5.066a.82.82,0,0,1,0-1.64h.006l.048,0a.769.769,0,0,1,.766.723v.093A.886.886,0,0,1,371.982,284.338Zm8.474-5.066a.82.82,0,1,1,.823-.822A.889.889,0,0,1,380.456,279.272Zm8.564,5.065a.82.82,0,1,1,.824-.822A.885.885,0,0,1,389.02,284.337Z" fill="#ef7d00"/>
    </g>
    <rect id="Rectangle_880" data-name="Rectangle 880" width="73.674" height="2.013" transform="translate(353.023 285.878) rotate(-45)" fill="#ef7d00"/>
  </g>
</svg>
