<svg xmlns="http://www.w3.org/2000/svg" width="174.022" height="62" viewBox="0 0 174.022 62">
  <g id="logo" transform="translate(-249.005 -98.752)">
    <path id="Path_143" data-name="Path 143" d="M312.588,120.108v-6.785h6.092v1.738h9.048q2.813-.016,3.335-.047a2.842,2.842,0,0,0,.877-.168,1.477,1.477,0,0,0,.828-1.522h6.151q.052.532.052,1.139a7.121,7.121,0,0,1-.8,3.8,3.154,3.154,0,0,1-1.465,1.224,8.346,8.346,0,0,1-2.6.514c-.725.052-2.856.089-6.38.11Zm0-6.785v-7.61h6.092v1.67H327.7a14.481,14.481,0,0,0,3.534-.231c.49-.189.742-.67.756-1.439h6.156a5.293,5.293,0,0,1-.578,2.179,3.57,3.57,0,0,1-2.206,1.523,5.41,5.41,0,0,1,2.074.709,4.1,4.1,0,0,1,1.487,3.2h-6.151v-.079c0-.883-.32-1.4-.956-1.55a40.455,40.455,0,0,0-4.085-.11H318.68v1.738Zm0-7.61V99.107h15.094q4.813.016,5.724.079a6.511,6.511,0,0,1,3.03.735,3.228,3.228,0,0,1,1.344,1.67,8.7,8.7,0,0,1,.41,2.978q0,.617-.047,1.145h-6.156v-.068c0-.83-.3-1.33-.909-1.492a29.282,29.282,0,0,0-3.382-.11H318.68v1.67Z" transform="translate(-8.077 -0.045)"/>
    <rect id="Rectangle_720" data-name="Rectangle 720" width="6.722" height="21.001" transform="translate(332.639 99.062)"/>
    <path id="Path_144" data-name="Path 144" d="M383.707,109.562a29.611,29.611,0,0,1-.567,6.978q-.834,3-4.511,3.5a83.8,83.8,0,0,1-9.29.336,85.5,85.5,0,0,1-9.417-.336q-3.678-.5-4.512-3.5a30.028,30.028,0,0,1-.567-6.978h6.4c0,.178,0,.361,0,.549a13.849,13.849,0,0,0,.2,2.784,2.394,2.394,0,0,0,2.321,1.832,53.7,53.7,0,0,0,5.556.184q3.859,0,5.136-.137a3.748,3.748,0,0,0,1.891-.62,2.143,2.143,0,0,0,.756-1.265,13.393,13.393,0,0,0,.2-2.752q0-.3,0-.575Zm-14.432-10.81a84.651,84.651,0,0,1,9.354.336q3.678.5,4.511,3.5a29.575,29.575,0,0,1,.567,6.969v.008h-6.4a23.029,23.029,0,0,0-.15-2.749,3.56,3.56,0,0,0-.556-1.6,2.382,2.382,0,0,0-1.675-.841,55.5,55.5,0,0,0-5.63-.163,38.734,38.734,0,0,0-6.124.263,2.081,2.081,0,0,0-1.555,1.376,13.834,13.834,0,0,0-.364,3.71h-6.4v-.128a28.727,28.727,0,0,1,.567-6.848q.835-3,4.512-3.5A84.38,84.38,0,0,1,369.275,98.752Z" transform="translate(-13.446 0)"/>
    <path id="Path_145" data-name="Path 145" d="M390.26,99.107h11.6L408.1,112.74l6.249-13.633h11.538v21h-6.307l.152-15.723h-1.045l-7.925,15.723h-5.309l-7.919-15.723h-1.124l.152,15.723H390.26Z" transform="translate(-17.945 -0.045)"/>
    <path id="Path_146" data-name="Path 146" d="M263.3,104.887a5.1,5.1,0,0,1-2.2,4.379,9.239,9.239,0,0,1-5.38,1.376h-5.465V120.5h-1.244V104.887h1.244v4.732h5.364q6.335,0,6.38-4.732Zm-14.293-5.78h6.886q3.9,0,5.795,1.7a5.109,5.109,0,0,1,1.612,3.987v.093h-1.305v-.064q0-4.664-6.188-4.669h-5.556v4.733h-1.244Z" transform="translate(0 -0.045)"/>
    <path id="Path_147" data-name="Path 147" d="M284.675,99.107v1.047H272.631v8.42h9.1v1.046h-9.1v9.825h12.251V120.5H271.388V99.107Z" transform="translate(-2.843 -0.045)"/>
    <path id="Path_148" data-name="Path 148" d="M305.724,99.107v1.047H298.3V120.5h-1.244V100.153h-7.377V99.107Z" transform="translate(-5.167 -0.045)"/>
    <rect id="Rectangle_721" data-name="Rectangle 721" width="8.138" height="62" transform="translate(414.889 98.752)" fill="#ef7d00"/>
  </g>
</svg>
