<svg xmlns="http://www.w3.org/2000/svg" width="40" height="40" viewBox="0 0 40 40">
  <g id="mail" transform="translate(-353 -4405)">
    <rect id="Rectangle_802" data-name="Rectangle 802" width="40" height="40" rx="8" transform="translate(353 4405)" fill="#fef7f0"/>
    <path id="Path_251" data-name="Path 251" d="M-229.61,545.261v9.3a.691.691,0,0,0-.031.1,1.909,1.909,0,0,1-1.935,1.672q-7.061.007-14.122,0a1.891,1.891,0,0,1-1.032-.3,1.936,1.936,0,0,1-.914-1.731c0-2.9.006-5.8-.007-8.707a1.036,1.036,0,0,1,.408-.829q4.06-3.1,8.106-6.213a.684.684,0,0,1,1.011,0q4.024,3.087,8.048,6.173A1.259,1.259,0,0,1-229.61,545.261Zm-11.077,4.248.792-.657c.266-.221.531-.444.8-.664a.657.657,0,0,1,.938,0c.231.19.46.383.69.574l.9.743,5.266-4.1-7.321-5.618-7.327,5.618Zm-4.646,5.532h13.4l-6.7-5.57Zm3.632-4.689-4.637-3.605v7.459Zm10.777,3.849V546.75l-4.631,3.6Z" transform="translate(611.65 3877.663)" fill="#ef7d00"/>
  </g>
</svg>
