<svg xmlns="http://www.w3.org/2000/svg" width="71.987" height="56.253" viewBox="0 0 71.987 56.253">
  <g id="cudzyslow_1" data-name="cudzyslow 1" transform="translate(-744.266 -1272.32)">
    <path id="Path_149" data-name="Path 149" d="M6.21,54.527,2.2,47.56a32.759,32.759,0,0,0,8.482-5.718,36.4,36.4,0,0,0,6.059-7.119c1.515-2.4,2.241-6.368,2.272-6.021a9.881,9.881,0,0,1-5.15,1.136,14.192,14.192,0,0,1-9.5-3.787Q0,22.265,0,15.222A14.747,14.747,0,0,1,4.355,4.355,14.934,14.934,0,0,1,15.374,0,15.106,15.106,0,0,1,27.566,5.528a20.213,20.213,0,0,1,4.62,13.4,31.385,31.385,0,0,1-3.673,14.995,43.172,43.172,0,0,1-9.58,12.117A54.83,54.83,0,0,1,6.21,54.527Z" transform="translate(777.203 1327.824) rotate(180)" fill="#fff" stroke="#ef7d00" stroke-width="1.5"/>
    <path id="Path_150" data-name="Path 150" d="M6.21,54.527,2.2,47.56a32.759,32.759,0,0,0,8.482-5.718,36.4,36.4,0,0,0,6.059-7.119c1.515-2.4,2.241-6.368,2.272-6.021a9.881,9.881,0,0,1-5.15,1.136,14.192,14.192,0,0,1-9.5-3.787Q0,22.265,0,15.222A14.747,14.747,0,0,1,4.355,4.355,14.934,14.934,0,0,1,15.374,0,15.106,15.106,0,0,1,27.566,5.528a20.213,20.213,0,0,1,4.62,13.4,31.385,31.385,0,0,1-3.673,14.995,43.172,43.172,0,0,1-9.58,12.117A54.83,54.83,0,0,1,6.21,54.527Z" transform="translate(815.504 1327.824) rotate(180)" fill="#fff" stroke="#ef7d00" stroke-width="1.5"/>
  </g>
</svg>
