<svg xmlns="http://www.w3.org/2000/svg" width="70.764" height="65.466" viewBox="0 0 70.764 65.466">
  <g id="dla_zajeczakow" data-name="dla zajeczakow" transform="translate(-822 -671)">
    <path id="Rectangle_830" data-name="Rectangle 830" d="M8,0H52a8,8,0,0,1,8,8v2A50,50,0,0,1,10,60H8a8,8,0,0,1-8-8V8A8,8,0,0,1,8,0Z" transform="translate(822 671)" fill="#fef2e5"/>
    <path id="Path_272" data-name="Path 272" d="M703.824,397.907a4.01,4.01,0,0,0-3.354-3.353l-.017,0h-.071a2.783,2.783,0,0,0-.489.069c-.252-2.715-1.7-5.886-5.844-8.716h0a16.157,16.157,0,0,0-16.992-.986,7.7,7.7,0,0,0-1.159-2.449,19.991,19.991,0,0,1,2.712-4.291l0,0,0,0c1.249-1.6,2.308-2.961,2.3-5.309a17.758,17.758,0,0,0-1.592-6.376h0l0-.008h0a1.392,1.392,0,0,0-1.022-.881,1.522,1.522,0,0,0-.3-.029,3.538,3.538,0,0,0-1.849.727,10.286,10.286,0,0,0-1.168.943,6.654,6.654,0,0,0-2.453-2.265l-.005,0,0,0a.822.822,0,0,0-.73.009,7.505,7.505,0,0,0-3.5,3.8,12.644,12.644,0,0,0-.9,4.974,26.456,26.456,0,0,0,1.229,7.478,19.612,19.612,0,0,0-4.137,2.836l-.005.005-.005.005a5.7,5.7,0,0,0-1.175,1.581,16.263,16.263,0,0,0-.787,2.128l-.286.864,0,.012,0,.012a4.769,4.769,0,0,0,.653,3.63l0,0,0,.005a2.942,2.942,0,0,0,1.851,1,15.813,15.813,0,0,0,2.591.268l.356.017a7.563,7.563,0,0,0,1.121,2.744,8.072,8.072,0,0,0,3.9,2.9l-.093.375a3.6,3.6,0,0,0-2.335,1.167l-.011.013-.01.015a2.906,2.906,0,0,0-.272,2.739h0l0,.007,0,.015h0a.811.811,0,0,0,.765.545h23.864a.815.815,0,0,0,.814-.815v-.006l0-.047v-.012a1.527,1.527,0,0,1,.39-1.017,2.717,2.717,0,0,1,1.8-.681l.071,0a4.147,4.147,0,0,0,2.635.952l.121,0h.015l.016,0a4.013,4.013,0,0,0,3.354-4.578ZM675.759,368.75a9.036,9.036,0,0,1,1.345-1.117,4.161,4.161,0,0,1,.543-.312,1.127,1.127,0,0,1,.225-.081,15.914,15.914,0,0,1,1.421,5.569c0,1.844-.8,2.863-1.964,4.363h0a22.267,22.267,0,0,0-2.667,4.111,4.311,4.311,0,0,0-.49-.3,13.9,13.9,0,0,1-.762-4.527v-.106l-.005-.072c-.006-.1-.018-.328-.019-.655C673.383,374.176,673.65,370.85,675.759,368.75Zm22.583,27.005v.109a9.281,9.281,0,0,1-1.147,4.1,4.069,4.069,0,0,0-2.566,1.135l0,.005-.006.006a3.122,3.122,0,0,0-.724,1.377H679.022a1.763,1.763,0,0,1,.931-1.435h3.91a.816.816,0,0,0,.814-.816v-.009l-.036-.911v-.008c-.023-.337-.034-.531-.035-1.582V397.7l-.01-.265a3.614,3.614,0,0,1,1.207-2.7,5.65,5.65,0,0,1,3.495-.976,10.809,10.809,0,0,1,1.28.078c.162.02.292.039.382.054l.1.018.027.005h0l.208.028a.815.815,0,0,0,.784-.6l.029-.217a.813.813,0,0,0-.6-.783l-.007,0-.079-.017a11.184,11.184,0,0,0-2.121-.194,7.223,7.223,0,0,0-4.537,1.345l0,0,0,0a5.182,5.182,0,0,0-1.8,3.923c0,.105,0,.21.01.316,0,1.092.016,1.324.038,1.681v.012h-3.274l-.209.037-.027.005-.026.011a3.411,3.411,0,0,0-2.083,3.01H671.4a.923.923,0,0,1-.016-.116,1.122,1.122,0,0,1,.168-.585,2.275,2.275,0,0,1,1.535-.6l.134,0h.034a.808.808,0,0,0,.785-.621v0l1.023-4.132h0l.026-.2a.812.812,0,0,0-.6-.785l-.208-.027a.811.811,0,0,0-.786.605v.005l0,.016-.4,1.6a6.359,6.359,0,0,1-2.949-2.227,6.032,6.032,0,0,1-.88-2.194,3.727,3.727,0,0,0-.158-.569,1.043,1.043,0,0,0-.349-.464l0,0h0a1.113,1.113,0,0,0-.517-.183c-.205-.028-.461-.038-.841-.055-.445-.019-1.184-.052-1.85-.147a5.459,5.459,0,0,1-.89-.192.935.935,0,0,1-.439-.243,3.173,3.173,0,0,1-.434-2.238l.281-.848a15.784,15.784,0,0,1,.687-1.874,4.1,4.1,0,0,1,.876-1.175,19.894,19.894,0,0,1,3.99-2.681v.1l.4-.319.063-.05.088-.065.03-.023.085-.115.009-.012.06-.108.016-.028.034-.132,0-.013.018-.118,0-.038-.023-.149v0l-.012-.082,0-.025-.008-.024a25.916,25.916,0,0,1-1.333-7.6,11.346,11.346,0,0,1,.684-4.135,5.979,5.979,0,0,1,2.433-2.973,4.776,4.776,0,0,1,1.674,1.865,12.262,12.262,0,0,0-2.087,7.071c0,.468.024.765.029.825v.194a14.632,14.632,0,0,0,.977,5.257l.011.028.056.081.083.12.028.039.18.119,0,0,.041.026.019.012.022.009a3.919,3.919,0,0,1,2.023,2.274,7.116,7.116,0,0,1,.457,1.69l0,.023.016.052v0l.028.091.005.015.056.126.013.029.02.046.078.074.009.008.177.14.03.023.142.054.021.008.123.023.049.009.022,0h.118l.061-.017h0l.114-.037.011,0,.111-.048.006,0,.034-.017.013-.006.012-.008a14.378,14.378,0,0,1,16.171.392h0l0,0c4.16,2.85,5.21,5.9,5.215,8.347Zm2.069,5.109-.107,0a2.42,2.42,0,0,1-1.483-.519,11.472,11.472,0,0,0,1.086-4.047.808.808,0,0,1,.419-.128l.081,0a2.126,2.126,0,0,1,1.853,2.106l-.011.213-.027.274h.042A2.129,2.129,0,0,1,700.411,400.864Z" transform="translate(188.893 332.352)" fill="#ef7d00"/>
  </g>
</svg>
