<svg xmlns="http://www.w3.org/2000/svg" width="80.324" height="74.348" viewBox="0 0 80.324 74.348">
  <g id="dla_gryzoni" data-name="dla gryzoni" transform="translate(-661 -671)">
    <path id="Rectangle_829" data-name="Rectangle 829" d="M8,0H52a8,8,0,0,1,8,8v2A50,50,0,0,1,10,60H8a8,8,0,0,1-8-8V8A8,8,0,0,1,8,0Z" transform="translate(661 671)" fill="#fef2e5"/>
    <g id="Group_82" data-name="Group 82" transform="translate(29.662 343.824)">
      <path id="Path_270" data-name="Path 270" d="M667.808,387.617v0h0Z" fill="#ef7d00"/>
      <path id="Path_271" data-name="Path 271" d="M711.66,395.471v-.016a7.247,7.247,0,0,0-.6-2.891,5.212,5.212,0,0,0-3.366-2.924h0a9.121,9.121,0,0,0-2.645-.358,22.362,22.362,0,0,0-4.99.726c-.5.119-.948.221-1.153.241a6.761,6.761,0,0,1-.7.038,3.023,3.023,0,0,1-2.99-1.57,24.327,24.327,0,0,0,1.247-7.368,12.337,12.337,0,0,0-2.268-7.617c-2.2-2.868-5.919-4.291-10.976-4.289q-1.461,0-3.075.157h-.005a19.3,19.3,0,0,0-7.7,2.641h0a15.3,15.3,0,0,1-2.348,1.1c.032-.079.072-.155.1-.236v0h0a4.151,4.151,0,0,0-.2-3.235,4.312,4.312,0,0,0-3.859-2.392h-.013a4.222,4.222,0,0,0-3.982,2.816l0,.005v0a4.682,4.682,0,0,0-.125,2.283h0c.078.509.133,1.046.188,1.575a10.417,10.417,0,0,0-3.206,1.891l-.005,0-.005.005a28.219,28.219,0,0,0-3.185,3.567,6.389,6.389,0,0,0-1.344,2.706l-.02.2h0a3.665,3.665,0,0,0,.567,2.9l.014.02.017.016a2.718,2.718,0,0,0,1.9.779c.084,0,.169-.005.254-.013h0a61.605,61.605,0,0,0,7.18-.558,15.848,15.848,0,0,1,1.715-.17.806.806,0,0,1,.389.061.4.4,0,0,1,.138.174,1.1,1.1,0,0,1,.054.334,1.12,1.12,0,0,1-.219.665l-.007.009-.006.009c-.216.342-1.093,1.55-3.515,1.555h-.041a2.058,2.058,0,0,0-1.5.655l-.01.011-.009.012a4.031,4.031,0,0,0-.77,2.369c0,.118.005.237.016.356h0v0h0a.815.815,0,0,0,.81.75h6.654a.816.816,0,0,0,.393-.1,29.12,29.12,0,0,0,5.468-3.9l1.188.522a3.827,3.827,0,0,0-.341,2.856h0v0l0,.017h0a.814.814,0,0,0,.791.644H691.6a.814.814,0,0,0,.8-.71l0-.015v-.023a2.611,2.611,0,0,1,1.542-1.976,4.69,4.69,0,0,0,4.259,2.124q.406,0,.857-.045h.011a12.5,12.5,0,0,0,1.347-.272h0a20.864,20.864,0,0,1,4.62-.684,7.5,7.5,0,0,1,2.171.287,3.67,3.67,0,0,1,2.388,2.119,5.581,5.581,0,0,1,.435,2.156v.008l0,.132a3.875,3.875,0,0,1-1.306,2.9,7.119,7.119,0,0,1-5.572,1.3l-.01,0h-.011l-.08,0a.814.814,0,0,0-.81.734l0,.079a.815.815,0,0,0,.693.806h.007a12.092,12.092,0,0,0,1.461.091h0c.109.005.217.007.326.007a8.087,8.087,0,0,0,5.062-1.78l.005,0,.005,0a5.528,5.528,0,0,0,1.86-4.132Zm-17.965-7.34a4.187,4.187,0,0,0-2.739,2.749H676.287c0-.05-.008-.106-.008-.152,0-.813.3-1.1.4-1.148h6.973l.243.006h.01a.814.814,0,0,0,.8-.814v-.013a.815.815,0,0,0-.767-.8h0l-.233-.006c-2.607-.114-4.745-2.62-4.745-5.726a5.67,5.67,0,0,1,1.609-4.195,6.058,6.058,0,0,1,4.333-1.566.814.814,0,1,0,0-1.627,7.675,7.675,0,0,0-5.476,2.039,7.291,7.291,0,0,0-2.093,5.345h0v.124a7.6,7.6,0,0,0,2.482,5.61h-2.99l-2.756-1.207a.823.823,0,0,0-.329-.069.81.81,0,0,0-.592.262l0,0a25.4,25.4,0,0,1-5.3,3.9H662.27a1.845,1.845,0,0,1,.3-.776.433.433,0,0,1,.3-.128h.021c.124.008.25.012.374.012a5.584,5.584,0,0,0,4.536-2.33l0,0a2.67,2.67,0,0,0,.264-2.587l0-.007,0-.009a1.993,1.993,0,0,0-.819-.892,2.451,2.451,0,0,0-1.179-.241,16.056,16.056,0,0,0-1.913.18,60.2,60.2,0,0,1-7.006.545h-.014l-.014,0-.159.01a1.182,1.182,0,0,1-.756-.275,1.374,1.374,0,0,1-.213-.868,7.455,7.455,0,0,1,.054-.776l.023-.22v0a2.273,2.273,0,0,1,.282-.728,21.1,21.1,0,0,1,3.749-4.517,8.494,8.494,0,0,1,2.295-1.4,7.817,7.817,0,0,0,.355,1.633,1.749,1.749,0,0,0,1.01,1.137l.005,0h.005a5.837,5.837,0,0,0,1.706.254l.174,0h0c.43,0,.738-.029.744-.029a.825.825,0,0,0,.392-.143l.028-.02.022-.027a22.254,22.254,0,0,0,2.265-3.353,12.25,12.25,0,0,0,4.134-1.624h0a17.6,17.6,0,0,1,7.072-2.444q1.542-.151,2.924-.151c4.6,0,7.823,1.244,9.675,3.655a10.715,10.715,0,0,1,1.916,6.605A23.288,23.288,0,0,1,693.7,388.131ZM663.67,370.82a2.6,2.6,0,0,1,2.443-1.721h.018a2.682,2.682,0,0,1,2.4,1.486,2.547,2.547,0,0,1,.129,1.967,29.067,29.067,0,0,1-2.731,4.668c-.092,0-.18.007-.287.007h-.008l-.136,0a4.422,4.422,0,0,1-1.15-.155,1.044,1.044,0,0,1-.126-.31,17.925,17.925,0,0,1-.377-2.51c-.065-.633-.134-1.292-.23-1.92v-.006l0-.007a3.1,3.1,0,0,1,.057-1.5Z" fill="#ef7d00"/>
    </g>
  </g>
</svg>
