<svg xmlns="http://www.w3.org/2000/svg" width="54.227" height="54.234" viewBox="0 0 54.227 54.234">
  <g id="nie_zawiera_substancji_słodzacych" data-name="nie zawiera substancji słodzacych" transform="translate(-38.645 -55.3)">
    <path id="Path_228" data-name="Path 228" d="M60,107.292H73.068a11.067,11.067,0,0,0,7.563-3.081,10.283,10.283,0,0,0,3.081-7.469V74.24a.817.817,0,0,0-.747-.84l-1.681,1.681h.747V96.835a9.208,9.208,0,0,1-.28,2.241v.187H57.2l-1.681,1.587H81l-.186.373a8.983,8.983,0,0,1-7.75,4.388H60a8.952,8.952,0,0,1-6.442-2.8l-1.214,1.214.187.187A10.133,10.133,0,0,0,60,107.292Z" transform="translate(-0.908 -1.201)" fill="#ef7d00"/>
    <path id="Path_229" data-name="Path 229" d="M75.844,65.477h0l-6.816.373,3.081-3.268a.688.688,0,0,0,.186-.56,1,1,0,0,0-.28-.654l-6.349-5.882a.686.686,0,0,0-.56-.187,1.009,1.009,0,0,0-.654.28h0l-5.975,6.349a.686.686,0,0,0-.187.56,1.009,1.009,0,0,0,.28.654h0L60.625,65.1l-7.469,1.961a1.953,1.953,0,0,0-.56.373h0a.561.561,0,0,0-.093.373V68h0l1.12,4.108H49.981a.837.837,0,0,0-.84.84V94.327l1.681-1.681V73.88h18.86L71.362,72.2h-.373l.56-1.587h0v-.28a.9.9,0,0,0-.56-.84h0l-2.894-.934v-.187L68,67.624l6.722-.373h.187L75,68.465l1.586-1.587v-.56A.761.761,0,0,0,75.844,65.477ZM55.4,72.2,54.37,68.465l6.536-1.774.187-.093,1.494,5.509H55.4ZM69.4,70.8l.187.093L69.121,72.2H64.733v1.494l-1.214-4.855Zm-4.015-3.641-5.135-4.668,4.575-4.948.187-.187,5.135,4.668Z" transform="translate(-0.696 0)" fill="#ef7d00"/>
    <path id="Path_230" data-name="Path 230" d="M95.19,88.56a.344.344,0,0,0,.28-.093h0a.782.782,0,0,0,.56-.747.343.343,0,0,0-.093-.28L88.748,69.7l-1.307,1.307L94.35,88.093A.98.98,0,0,0,95.19,88.56Z" transform="translate(-3.237 -0.955)" fill="#ef7d00"/>
    <rect id="Rectangle_832" data-name="Rectangle 832" width="74.693" height="2" transform="translate(38.645 108.12) rotate(-45.004)" fill="#ef7d00"/>
  </g>
</svg>
