<svg xmlns="http://www.w3.org/2000/svg" width="40" height="40" viewBox="0 0 40 40">
  <g id="telefon" transform="translate(-353 -4355)">
    <rect id="Rectangle_799" data-name="Rectangle 799" width="40" height="40" rx="8" transform="translate(353 4355)" fill="#fef7f0"/>
    <g id="Group_90" data-name="Group 90" transform="translate(13.784 4147.405)">
      <path id="Path_336" data-name="Path 336" d="M368.186,232.417l0,0v0a1.3,1.3,0,0,0-.535-.691c-.77-.5-1.528-1.021-2.314-1.488a15.676,15.676,0,0,0-1.6-.794l0,0h0a.973.973,0,0,0-1.2.272l0,0,0,0c-.3.324-.594.653-.872,1l0,0a.368.368,0,0,1-.3.165l-.17-.047v0a8.333,8.333,0,0,1-4.966-4.962l0,0v0l0-.006h0l-.042-.167a.356.356,0,0,1,.177-.307v0a5.214,5.214,0,0,0,.463-.392h0c.24-.222.482-.435.693-.671h0a.809.809,0,0,0,.215-.548l-.045-.264v-.006a4.45,4.45,0,0,0-.2-.551,21.162,21.162,0,0,0-2.239-3.676l-.132-.175a.949.949,0,0,0-1.34-.039l0,0,0,0a16.347,16.347,0,0,0-1.341,1.265,12.92,12.92,0,0,0-1.847,2.494v0l0,0a.826.826,0,0,0-.143.466l0,.072c.031.2.051.393.088.586a11.735,11.735,0,0,0,1.332,3.514,20.378,20.378,0,0,0,4.95,5.835l0,0a16.468,16.468,0,0,0,4.713,2.782,8.96,8.96,0,0,0,2.315.543,2.706,2.706,0,0,0,.4-.153,14.294,14.294,0,0,0,3.48-2.829,4.887,4.887,0,0,0,.427-.6v0a.688.688,0,0,0,.108-.368Zm-1.012.327a16.142,16.142,0,0,1-2.526,2.283c-.234.171-.473.336-.719.49h0a.551.551,0,0,1-.285.079l-.051,0h-.006a9.9,9.9,0,0,1-3.533-1.28h0a19.185,19.185,0,0,1-7.578-7.809h0a9.241,9.241,0,0,1-1.025-3.057l0-.014,0-.015.037-.249.011-.018a16.13,16.13,0,0,1,2.75-3.249l.011-.009.013-.006.121-.06.05.06.126.151,0,0a21.661,21.661,0,0,1,2.059,3.47l.027.041-.009.041-.053.248-.027.023c-.21.174-.422.353-.62.537-.244.222-.483.45-.722.68a.5.5,0,0,0-.155.363l.025.155v.006a8.329,8.329,0,0,0,1.544,3.075h0c1.134,1.478,4.626,3.2,4.81,3.266h0l.149.024a.475.475,0,0,0,.346-.15c.376-.408.747-.822,1.118-1.237l.138-.144.162-.066a.714.714,0,0,1,.274.094,21.117,21.117,0,0,1,3.332,1.981h0l0,0,.189.148.084.066Z" fill="#ef7d00"/>
      <path id="Path_337" data-name="Path 337" d="M368.3,233.149a.883.883,0,0,0,.138-.473.872.872,0,0,0-.065-.328h0v-.007h0a1.5,1.5,0,0,0-.613-.789c-.768-.5-1.528-1.023-2.322-1.493h0a15.98,15.98,0,0,0-1.616-.8h0l0,0h0a1.17,1.17,0,0,0-1.439.324h0c-.3.325-.6.657-.88,1l0,.005,0,.006-.143.079-.086-.024-.008,0-.009,0a8.132,8.132,0,0,1-4.851-4.853l0-.007-.007-.013h0l-.021-.078.085-.142.006,0,.005,0a5.331,5.331,0,0,0,.481-.407h0c.237-.219.483-.436.7-.682h0a1,1,0,0,0,.212-1.006h0l0-.005h0a4.851,4.851,0,0,0-.2-.572h0v0a21.353,21.353,0,0,0-2.262-3.713l-.137-.181,0,0,0,0a1.146,1.146,0,0,0-1.619-.051h0l0,0h0a16.806,16.806,0,0,0-1.353,1.276,13.1,13.1,0,0,0-1.871,2.527h0v0l0,0h0a1.029,1.029,0,0,0-.174.571l0,.091v.007c.03.191.05.392.089.6v0a11.914,11.914,0,0,0,1.355,3.574,20.55,20.55,0,0,0,5,5.89h0a16.65,16.65,0,0,0,4.769,2.815,9.116,9.116,0,0,0,2.387.558l.018,0,.019,0a2.861,2.861,0,0,0,.453-.174h0l0,0a14.474,14.474,0,0,0,3.534-2.872h0v0a4.853,4.853,0,0,0,.445-.619h0Zm-.171-.1a4.887,4.887,0,0,1-.427.6,14.294,14.294,0,0,1-3.48,2.829,2.706,2.706,0,0,1-.4.153,8.96,8.96,0,0,1-2.315-.543,16.468,16.468,0,0,1-4.713-2.782l0,0a20.378,20.378,0,0,1-4.95-5.835,11.735,11.735,0,0,1-1.332-3.514c-.037-.193-.057-.39-.088-.586l0-.072a.826.826,0,0,1,.143-.466l0,0v0a12.92,12.92,0,0,1,1.847-2.494,16.347,16.347,0,0,1,1.341-1.265l0,0,0,0a.949.949,0,0,1,1.34.039l.132.175a21.162,21.162,0,0,1,2.239,3.676,4.45,4.45,0,0,1,.2.551v.006l.045.264a.809.809,0,0,1-.215.548h0c-.211.236-.453.449-.693.671h0a5.214,5.214,0,0,1-.463.392v0a.356.356,0,0,0-.177.307l.042.167h0l0,.006v0l0,0a8.333,8.333,0,0,0,4.966,4.962v0l.17.047a.368.368,0,0,0,.3-.165l0,0c.278-.343.574-.672.872-1l0,0,0,0a.973.973,0,0,1,1.2-.272h0l0,0a15.676,15.676,0,0,1,1.6.794c.786.467,1.544.985,2.314,1.488a1.3,1.3,0,0,1,.535.691v0l0,0,.051.259a.688.688,0,0,1-.108.368Z" fill="#ef7d00"/>
      <path id="Path_338" data-name="Path 338" d="M366.972,232.451l0,0h0a21.117,21.117,0,0,0-3.332-1.981.714.714,0,0,0-.274-.094l-.162.066-.138.144c-.371.415-.742.829-1.118,1.237a.475.475,0,0,1-.346.15l-.149-.024h0c-.184-.065-3.676-1.788-4.81-3.266h0a8.329,8.329,0,0,1-1.544-3.075V225.6l-.025-.155a.5.5,0,0,1,.155-.363c.239-.23.478-.458.722-.68.2-.184.41-.363.62-.537l.027-.023.053-.248.009-.041-.027-.041a21.661,21.661,0,0,0-2.059-3.47l0,0-.126-.151-.05-.06-.121.06-.013.006-.011.009a16.13,16.13,0,0,0-2.75,3.249l-.011.018-.037.249,0,.015,0,.014a9.241,9.241,0,0,0,1.025,3.057h0a19.185,19.185,0,0,0,7.578,7.809h0a9.9,9.9,0,0,0,3.533,1.28h.006l.051,0a.551.551,0,0,0,.285-.079h0c.246-.154.485-.319.719-.49a16.142,16.142,0,0,0,2.526-2.283l.071-.079-.084-.066Zm-3.148,2.9-.182.05h-.029a9.718,9.718,0,0,1-3.461-1.255h0a18.983,18.983,0,0,1-7.5-7.73h0a9.059,9.059,0,0,1-1-2.979l.028-.189a15.934,15.934,0,0,1,2.669-3.157l.064.075a21.612,21.612,0,0,1,2.034,3.428l-.031.145c-.2.168-.408.341-.6.52-.246.224-.487.454-.725.684a.7.7,0,0,0-.217.507l.034.211h0v.005h0a8.5,8.5,0,0,0,1.578,3.142h0a11.12,11.12,0,0,0,2.866,2.242c.529.316,1.023.584,1.392.776.185.095.338.172.448.225s.162.077.2.09h0l0,0h0l.2.033a.676.676,0,0,0,.493-.214c.378-.409.749-.825,1.12-1.24l.118-.125.033-.018a.67.67,0,0,1,.188.075,20.835,20.835,0,0,1,3.3,1.962l.1.077a15.871,15.871,0,0,1-2.419,2.178C364.3,235.034,364.064,235.2,363.824,235.347Z" fill="#ef7d00"/>
      <path id="Path_339" data-name="Path 339" d="M359.466,219.71l-.034.206a.5.5,0,0,0,.5.476h.023a6.6,6.6,0,0,1,2.075.341,6.7,6.7,0,0,1,4.613,6.319v.006l0,.032a.51.51,0,0,0,.508.51l.063,0a.488.488,0,0,0,.431-.484l0-.058v-.007a12.064,12.064,0,0,0-.186-1.619,7.708,7.708,0,0,0-7.31-6.041l-.24.005A.479.479,0,0,0,359.466,219.71Z" fill="#ef7d00"/>
      <path id="Path_340" data-name="Path 340" d="M359.93,220.592h.022a6.4,6.4,0,0,1,2.013.33,6.5,6.5,0,0,1,4.476,6.13l0,.033v0a.71.71,0,0,0,.708.71h0l.076,0h.006a.688.688,0,0,0,.609-.683l0-.074h0a12,12,0,0,0-.19-1.648v0a7.908,7.908,0,0,0-7.5-6.2h0l-.245.006a.679.679,0,0,0-.62.454l0,.008-.04.243v.02A.7.7,0,0,0,359.93,220.592Zm.211-1.205a7.708,7.708,0,0,1,7.31,6.041,12.064,12.064,0,0,1,.186,1.619v.007l0,.058a.488.488,0,0,1-.431.484l-.063,0a.51.51,0,0,1-.508-.51l0-.032v-.006a6.7,6.7,0,0,0-4.613-6.319,6.6,6.6,0,0,0-2.075-.341h-.023a.5.5,0,0,1-.5-.476l.034-.206a.479.479,0,0,1,.435-.318Z" fill="#ef7d00"/>
      <path id="Path_341" data-name="Path 341" d="M359.43,222.907a.507.507,0,0,0,.506.488h.024a3.65,3.65,0,0,1,3.023,1.614h0a3.618,3.618,0,0,1,.653,2.071v.013h0v.007a.5.5,0,0,0,.457.5l.043,0a.5.5,0,0,0,.486-.389l.019-.242a4.734,4.734,0,0,0-3.856-4.494,6.041,6.041,0,0,0-.805-.076h0l-.05,0h0a.5.5,0,0,0-.5.5Z" fill="#ef7d00"/>
      <path id="Path_342" data-name="Path 342" d="M359.936,223.6h.023a3.449,3.449,0,0,1,2.859,1.527h0a3.415,3.415,0,0,1,.618,1.958v.021a.7.7,0,0,0,.639.7l.061,0a.7.7,0,0,0,.682-.548l0-.007.021-.268v-.012a4.932,4.932,0,0,0-4.02-4.686h0a6.279,6.279,0,0,0-.832-.079h0l-.05,0h-.009a.7.7,0,0,0-.7.7h0v.019A.707.707,0,0,0,359.936,223.6Zm-.007-1.2h0l.05,0h0a6.041,6.041,0,0,1,.805.076,4.734,4.734,0,0,1,3.856,4.494l-.019.242a.5.5,0,0,1-.486.389l-.043,0a.5.5,0,0,1-.457-.5V227.1h0v-.013a3.618,3.618,0,0,0-.653-2.071h0a3.65,3.65,0,0,0-3.023-1.614h-.024a.507.507,0,0,1-.506-.488V222.9A.5.5,0,0,1,359.929,222.4Z" fill="#ef7d00"/>
    </g>
  </g>
</svg>
