<svg xmlns="http://www.w3.org/2000/svg" width="51.662" height="55" viewBox="0 0 51.662 55">
  <path id="produkt_weganski" data-name="produkt weganski" d="M413.212,653.131a61.263,61.263,0,0,0-.333-17.57v-.011a2.792,2.792,0,0,0-2.767-2.429l-.175.005h-.013a53.493,53.493,0,0,0-5.572.443,41.981,41.981,0,0,0-20.476,8.951l-.009.008-.011.007a4.572,4.572,0,0,1-.528.319l-.437.224-.081-.484c-.151-.895-.246-1.7-.42-2.46v-.006A20.126,20.126,0,0,0,373.009,627l-.011-.007-.01-.007a2.749,2.749,0,0,0-3.625.415l0,.005,0,0a26.252,26.252,0,0,0-7.232,16.43v.007q-.092,1.116-.093,2.227A26.592,26.592,0,0,0,369,664.026l.01.011.009.012a1.719,1.719,0,0,1,.358,1.049l-.011.2v.014c-.227,1.438-.536,2.854-.791,4.266h0a2.241,2.241,0,0,0-.039.4,1.168,1.168,0,0,0,.211.727.868.868,0,0,0,.577.315l.177.014a.806.806,0,0,0,.621-.27,1.64,1.64,0,0,0,.362-.9h0a35.39,35.39,0,0,1,3.309-11.222h0l0,0c7.327-14.657,19.237-22.644,35.666-23.563.148-.009.281-.014.4-.014a1.869,1.869,0,0,1,.52.059.837.837,0,0,1,.434.286,1.96,1.96,0,0,1,.282,1.048c.24,2.8.619,5.622.619,8.466v.13q.012.555.012,1.11a51.968,51.968,0,0,1-.712,8.57v.005l0,.007a26.547,26.547,0,0,1-8.232,14.432h0l0,0,0,0h0a28.237,28.237,0,0,1-17.562,7.695h-.005q-1.076.086-2.152.086a26.768,26.768,0,0,1-6.834-.887l-.742-.2.626-.445c.339-.241.6-.437.874-.616h0A64.112,64.112,0,0,0,395.1,656.058h0c.5-.786.987-1.574,1.419-2.383a.48.48,0,0,0-.117-.206,2.043,2.043,0,0,0-.416-.368,2.108,2.108,0,0,0-1-.4l-.082.008-.016.006c-.217.295-.4.646-.621,1h0v0h0a62.814,62.814,0,0,1-26.692,24.273h0c-1.383.67-2.806,1.229-4.182,1.841l-.087.067-.023.1a1.4,1.4,0,0,0,.257.656,3.147,3.147,0,0,0,.575.669,1,1,0,0,0,.238.16c2.714-1.239,5.4-2.543,8.077-3.867v0a1.911,1.911,0,0,1,.961-.263,1.93,1.93,0,0,1,.585.091,30.151,30.151,0,0,0,14.782.906h0C401.837,675.98,411.715,665.078,413.212,653.131Zm-32.332-8.749v.005a1.929,1.929,0,0,1-.416,1.154h0l0,0c-1.616,1.988-3.261,3.949-4.9,5.915h0c-.07.087-.137.161-.271.315l-.579.662-.05-.878c-.067-1.19-.057-2.265-.2-3.288-.432-3.057-.909-6.106-1.413-9.151v0l0,0-.061-.039a1.057,1.057,0,0,0-.409-.066,2.167,2.167,0,0,0-1.322.427l-.065.106v.007h0c.434,2.763,1.04,5.533,1.28,8.358.113,1.34.141,2.681.141,4.018,0,1.245-.024,2.489-.024,3.726,0,.19,0,.38,0,.569v.025a1.5,1.5,0,0,1-.145.552h0c-.7,1.631-1.4,3.257-2.136,4.969l-.226.526-.376-.433a22.406,22.406,0,0,1-4.033-6.766v0a28.134,28.134,0,0,1-1.8-9.619,22.372,22.372,0,0,1,2.25-9.855h0a30.038,30.038,0,0,1,4.237-6.5h0l.157-.208.015-.015a1.278,1.278,0,0,1,1.779-.065l0-.006a18.164,18.164,0,0,1,8.566,15.421Z" transform="translate(-362.028 -626.487)" fill="#ef7d00"/>
</svg>
